solid RobotPart2
   facet normal 0.000000e+000 0.000000e+000 1.000000e+000
      outer loop
         vertex 5.614192e+002 8.096136e+001 6.600000e+002
         vertex 5.614192e+002 9.613653e-001 6.600000e+002
         vertex 6.414192e+002 8.096136e+001 6.600000e+002
      endloop
   endfacet
   facet normal 0.000000e+000 0.000000e+000 1.000000e+000
      outer loop
         vertex 6.414192e+002 8.096136e+001 6.600000e+002
         vertex 5.614192e+002 9.613653e-001 6.600000e+002
         vertex 6.414192e+002 9.613653e-001 6.600000e+002
      endloop
   endfacet
   facet normal -1.000000e+000 0.000000e+000 0.000000e+000
      outer loop
         vertex 6.414192e+002 8.096136e+001 6.600000e+002
         vertex 6.414192e+002 9.613653e-001 6.600000e+002
         vertex 6.414192e+002 8.096136e+001 7.400000e+002
      endloop
   endfacet
   facet normal -1.000000e+000 0.000000e+000 0.000000e+000
      outer loop
         vertex 6.414192e+002 8.096136e+001 7.400000e+002
         vertex 6.414192e+002 9.613653e-001 6.600000e+002
         vertex 6.414192e+002 9.613653e-001 7.400000e+002
      endloop
   endfacet
   facet normal 0.000000e+000 0.000000e+000 -1.000000e+000
      outer loop
         vertex 6.414192e+002 8.096136e+001 7.400000e+002
         vertex 6.414192e+002 9.613653e-001 7.400000e+002
         vertex 5.614192e+002 8.096136e+001 7.400000e+002
      endloop
   endfacet
   facet normal 0.000000e+000 0.000000e+000 -1.000000e+000
      outer loop
         vertex 5.614192e+002 8.096136e+001 7.400000e+002
         vertex 6.414192e+002 9.613653e-001 7.400000e+002
         vertex 5.614192e+002 9.613653e-001 7.400000e+002
      endloop
   endfacet
   facet normal 1.000000e+000 0.000000e+000 0.000000e+000
      outer loop
         vertex 5.614192e+002 8.096136e+001 7.400000e+002
         vertex 5.614192e+002 9.613653e-001 7.400000e+002
         vertex 5.614192e+002 8.096136e+001 6.600000e+002
      endloop
   endfacet
   facet normal 1.000000e+000 0.000000e+000 0.000000e+000
      outer loop
         vertex 5.614192e+002 8.096136e+001 6.600000e+002
         vertex 5.614192e+002 9.613653e-001 7.400000e+002
         vertex 5.614192e+002 9.613653e-001 6.600000e+002
      endloop
   endfacet
   facet normal 0.000000e+000 1.000000e+000 0.000000e+000
      outer loop
         vertex 1.014192e+002 8.096136e+001 8.000000e+002
         vertex 5.614192e+002 8.096136e+001 7.400000e+002
         vertex 5.614192e+002 8.096136e+001 6.600000e+002
      endloop
   endfacet
   facet normal 0.000000e+000 1.000000e+000 0.000000e+000
      outer loop
         vertex 6.514192e+002 8.096136e+001 7.866025e+002
         vertex 6.414192e+002 8.096136e+001 7.400000e+002
         vertex 6.273011e+002 8.096136e+001 7.965926e+002
      endloop
   endfacet
   facet normal 0.000000e+000 1.000000e+000 0.000000e+000
      outer loop
         vertex 6.273011e+002 8.096136e+001 7.965926e+002
         vertex 6.414192e+002 8.096136e+001 7.400000e+002
         vertex 5.614192e+002 8.096136e+001 7.400000e+002
      endloop
   endfacet
   facet normal 0.000000e+000 1.000000e+000 0.000000e+000
      outer loop
         vertex 6.273011e+002 8.096136e+001 7.965926e+002
         vertex 5.614192e+002 8.096136e+001 7.400000e+002
         vertex 6.014192e+002 8.096136e+001 8.000000e+002
      endloop
   endfacet
   facet normal 0.000000e+000 1.000000e+000 0.000000e+000
      outer loop
         vertex 6.014192e+002 8.096136e+001 8.000000e+002
         vertex 5.614192e+002 8.096136e+001 7.400000e+002
         vertex 1.014192e+002 8.096136e+001 8.000000e+002
      endloop
   endfacet
   facet normal 0.000000e+000 1.000000e+000 0.000000e+000
      outer loop
         vertex 6.514192e+002 8.096136e+001 7.866025e+002
         vertex 6.721299e+002 8.096136e+001 7.707107e+002
         vertex 6.414192e+002 8.096136e+001 7.400000e+002
      endloop
   endfacet
   facet normal 0.000000e+000 1.000000e+000 0.000000e+000
      outer loop
         vertex 6.414192e+002 8.096136e+001 7.400000e+002
         vertex 6.721299e+002 8.096136e+001 7.707107e+002
         vertex 6.880218e+002 8.096136e+001 7.500000e+002
      endloop
   endfacet
   facet normal 0.000000e+000 1.000000e+000 0.000000e+000
      outer loop
         vertex 6.414192e+002 8.096136e+001 7.400000e+002
         vertex 6.880218e+002 8.096136e+001 7.500000e+002
         vertex 6.980118e+002 8.096136e+001 7.258820e+002
      endloop
   endfacet
   facet normal 0.000000e+000 1.000000e+000 0.000000e+000
      outer loop
         vertex 6.980118e+002 8.096136e+001 7.258820e+002
         vertex 7.014193e+002 8.096136e+001 7.000000e+002
         vertex 6.414192e+002 8.096136e+001 7.400000e+002
      endloop
   endfacet
   facet normal 0.000000e+000 1.000000e+000 0.000000e+000
      outer loop
         vertex 6.414192e+002 8.096136e+001 7.400000e+002
         vertex 7.014193e+002 8.096136e+001 7.000000e+002
         vertex 6.980118e+002 8.096136e+001 6.741181e+002
      endloop
   endfacet
   facet normal 0.000000e+000 1.000000e+000 0.000000e+000
      outer loop
         vertex 6.414192e+002 8.096136e+001 7.400000e+002
         vertex 6.980118e+002 8.096136e+001 6.741181e+002
         vertex 6.414192e+002 8.096136e+001 6.600000e+002
      endloop
   endfacet
   facet normal 0.000000e+000 1.000000e+000 0.000000e+000
      outer loop
         vertex 6.414192e+002 8.096136e+001 6.600000e+002
         vertex 6.980118e+002 8.096136e+001 6.741181e+002
         vertex 6.880218e+002 8.096136e+001 6.500000e+002
      endloop
   endfacet
   facet normal 0.000000e+000 1.000000e+000 0.000000e+000
      outer loop
         vertex 6.414192e+002 8.096136e+001 6.600000e+002
         vertex 6.880218e+002 8.096136e+001 6.500000e+002
         vertex 6.721299e+002 8.096136e+001 6.292893e+002
      endloop
   endfacet
   facet normal 0.000000e+000 1.000000e+000 0.000000e+000
      outer loop
         vertex 5.141918e+001 8.096136e+001 6.133975e+002
         vertex 3.070850e+001 8.096136e+001 6.292893e+002
         vertex 1.014192e+002 8.096136e+001 8.000000e+002
      endloop
   endfacet
   facet normal 0.000000e+000 1.000000e+000 0.000000e+000
      outer loop
         vertex 1.481665e+001 8.096136e+001 7.500000e+002
         vertex 1.014192e+002 8.096136e+001 8.000000e+002
         vertex 4.826612e+000 8.096136e+001 7.258820e+002
      endloop
   endfacet
   facet normal 0.000000e+000 1.000000e+000 0.000000e+000
      outer loop
         vertex 4.826612e+000 8.096136e+001 7.258820e+002
         vertex 1.014192e+002 8.096136e+001 8.000000e+002
         vertex 1.419194e+000 8.096136e+001 7.000000e+002
      endloop
   endfacet
   facet normal 0.000000e+000 1.000000e+000 0.000000e+000
      outer loop
         vertex 6.721299e+002 8.096136e+001 6.292893e+002
         vertex 6.514192e+002 8.096136e+001 6.133975e+002
         vertex 6.414192e+002 8.096136e+001 6.600000e+002
      endloop
   endfacet
   facet normal 0.000000e+000 1.000000e+000 0.000000e+000
      outer loop
         vertex 6.414192e+002 8.096136e+001 6.600000e+002
         vertex 6.514192e+002 8.096136e+001 6.133975e+002
         vertex 6.273011e+002 8.096136e+001 6.034075e+002
      endloop
   endfacet
   facet normal 0.000000e+000 1.000000e+000 0.000000e+000
      outer loop
         vertex 6.414192e+002 8.096136e+001 6.600000e+002
         vertex 6.273011e+002 8.096136e+001 6.034075e+002
         vertex 5.614192e+002 8.096136e+001 6.600000e+002
      endloop
   endfacet
   facet normal 0.000000e+000 1.000000e+000 0.000000e+000
      outer loop
         vertex 6.273011e+002 8.096136e+001 6.034075e+002
         vertex 6.014192e+002 8.096136e+001 6.000000e+002
         vertex 5.614192e+002 8.096136e+001 6.600000e+002
      endloop
   endfacet
   facet normal 0.000000e+000 1.000000e+000 0.000000e+000
      outer loop
         vertex 5.614192e+002 8.096136e+001 6.600000e+002
         vertex 6.014192e+002 8.096136e+001 6.000000e+002
         vertex 1.014192e+002 8.096136e+001 6.000000e+002
      endloop
   endfacet
   facet normal 0.000000e+000 1.000000e+000 0.000000e+000
      outer loop
         vertex 5.614192e+002 8.096136e+001 6.600000e+002
         vertex 1.014192e+002 8.096136e+001 6.000000e+002
         vertex 1.014192e+002 8.096136e+001 8.000000e+002
      endloop
   endfacet
   facet normal 0.000000e+000 1.000000e+000 0.000000e+000
      outer loop
         vertex 1.014192e+002 8.096136e+001 8.000000e+002
         vertex 1.014192e+002 8.096136e+001 6.000000e+002
         vertex 7.553727e+001 8.096136e+001 6.034075e+002
      endloop
   endfacet
   facet normal 0.000000e+000 1.000000e+000 0.000000e+000
      outer loop
         vertex 1.014192e+002 8.096136e+001 8.000000e+002
         vertex 7.553727e+001 8.096136e+001 6.034075e+002
         vertex 5.141918e+001 8.096136e+001 6.133975e+002
      endloop
   endfacet
   facet normal 0.000000e+000 1.000000e+000 0.000000e+000
      outer loop
         vertex 3.070850e+001 8.096136e+001 6.292893e+002
         vertex 1.481665e+001 8.096136e+001 6.500000e+002
         vertex 1.014192e+002 8.096136e+001 8.000000e+002
      endloop
   endfacet
   facet normal 0.000000e+000 1.000000e+000 0.000000e+000
      outer loop
         vertex 1.014192e+002 8.096136e+001 8.000000e+002
         vertex 1.481665e+001 8.096136e+001 6.500000e+002
         vertex 4.826612e+000 8.096136e+001 6.741181e+002
      endloop
   endfacet
   facet normal 0.000000e+000 1.000000e+000 0.000000e+000
      outer loop
         vertex 1.014192e+002 8.096136e+001 8.000000e+002
         vertex 4.826612e+000 8.096136e+001 6.741181e+002
         vertex 1.419194e+000 8.096136e+001 7.000000e+002
      endloop
   endfacet
   facet normal 0.000000e+000 1.000000e+000 0.000000e+000
      outer loop
         vertex 1.481665e+001 8.096136e+001 7.500000e+002
         vertex 3.070850e+001 8.096136e+001 7.707107e+002
         vertex 1.014192e+002 8.096136e+001 8.000000e+002
      endloop
   endfacet
   facet normal 0.000000e+000 1.000000e+000 0.000000e+000
      outer loop
         vertex 1.014192e+002 8.096136e+001 8.000000e+002
         vertex 3.070850e+001 8.096136e+001 7.707107e+002
         vertex 5.141918e+001 8.096136e+001 7.866025e+002
      endloop
   endfacet
   facet normal 0.000000e+000 1.000000e+000 0.000000e+000
      outer loop
         vertex 1.014192e+002 8.096136e+001 8.000000e+002
         vertex 5.141918e+001 8.096136e+001 7.866025e+002
         vertex 7.553727e+001 8.096136e+001 7.965926e+002
      endloop
   endfacet
   facet normal 0.000000e+000 0.000000e+000 1.000000e+000
      outer loop
         vertex 1.014192e+002 8.096136e+001 8.000000e+002
         vertex 1.014192e+002 9.613653e-001 8.000000e+002
         vertex 6.014192e+002 8.096136e+001 8.000000e+002
      endloop
   endfacet
   facet normal 0.000000e+000 0.000000e+000 1.000000e+000
      outer loop
         vertex 6.014192e+002 8.096136e+001 8.000000e+002
         vertex 1.014192e+002 9.613653e-001 8.000000e+002
         vertex 6.014192e+002 9.613653e-001 8.000000e+002
      endloop
   endfacet
   facet normal 8.693379e-002 0.000000e+000 -9.962141e-001
      outer loop
         vertex 6.014192e+002 9.613653e-001 6.000000e+002
         vertex 6.014192e+002 8.096136e+001 6.000000e+002
         vertex 6.273011e+002 8.096136e+001 6.034075e+002
      endloop
   endfacet
   facet normal 1.738676e-001 0.000000e+000 -9.847690e-001
      outer loop
         vertex 6.014192e+002 9.613653e-001 6.000000e+002
         vertex 6.273011e+002 8.096136e+001 6.034075e+002
         vertex 6.273011e+002 9.613653e-001 6.034075e+002
      endloop
   endfacet
   facet normal 3.418108e-001 0.000000e+000 -9.397688e-001
      outer loop
         vertex 6.273011e+002 9.613653e-001 6.034075e+002
         vertex 6.273011e+002 8.096136e+001 6.034075e+002
         vertex 6.514192e+002 8.096136e+001 6.133975e+002
      endloop
   endfacet
   facet normal 4.228202e-001 0.000000e+000 -9.062136e-001
      outer loop
         vertex 6.273011e+002 9.613653e-001 6.034075e+002
         vertex 6.514192e+002 8.096136e+001 6.133975e+002
         vertex 6.514192e+002 9.613653e-001 6.133975e+002
      endloop
   endfacet
   facet normal 5.733939e-001 0.000000e+000 -8.192798e-001
      outer loop
         vertex 6.514192e+002 9.613653e-001 6.133975e+002
         vertex 6.514192e+002 8.096136e+001 6.133975e+002
         vertex 6.721299e+002 8.096136e+001 6.292893e+002
      endloop
   endfacet
   facet normal 6.429583e-001 0.000000e+000 -7.659011e-001
      outer loop
         vertex 6.514192e+002 9.613653e-001 6.133975e+002
         vertex 6.721299e+002 8.096136e+001 6.292893e+002
         vertex 6.721299e+002 9.613653e-001 6.292893e+002
      endloop
   endfacet
   facet normal 7.659012e-001 0.000000e+000 -6.429583e-001
      outer loop
         vertex 6.721299e+002 9.613653e-001 6.292893e+002
         vertex 6.721299e+002 8.096136e+001 6.292893e+002
         vertex 6.880218e+002 8.096136e+001 6.500000e+002
      endloop
   endfacet
   facet normal 8.192798e-001 0.000000e+000 -5.733939e-001
      outer loop
         vertex 6.721299e+002 9.613653e-001 6.292893e+002
         vertex 6.880218e+002 8.096136e+001 6.500000e+002
         vertex 6.880218e+002 9.613653e-001 6.500000e+002
      endloop
   endfacet
   facet normal 9.062136e-001 0.000000e+000 -4.228202e-001
      outer loop
         vertex 6.880218e+002 9.613653e-001 6.500000e+002
         vertex 6.880218e+002 8.096136e+001 6.500000e+002
         vertex 6.980118e+002 8.096136e+001 6.741181e+002
      endloop
   endfacet
   facet normal 9.397688e-001 0.000000e+000 -3.418108e-001
      outer loop
         vertex 6.880218e+002 9.613653e-001 6.500000e+002
         vertex 6.980118e+002 8.096136e+001 6.741181e+002
         vertex 6.980118e+002 9.613653e-001 6.741181e+002
      endloop
   endfacet
   facet normal 9.847690e-001 0.000000e+000 -1.738676e-001
      outer loop
         vertex 6.980118e+002 9.613653e-001 6.741181e+002
         vertex 6.980118e+002 8.096136e+001 6.741181e+002
         vertex 7.014193e+002 8.096136e+001 7.000000e+002
      endloop
   endfacet
   facet normal 9.962141e-001 0.000000e+000 -8.693379e-002
      outer loop
         vertex 6.980118e+002 9.613653e-001 6.741181e+002
         vertex 7.014193e+002 8.096136e+001 7.000000e+002
         vertex 7.014193e+002 9.613653e-001 7.000000e+002
      endloop
   endfacet
   facet normal 9.962141e-001 0.000000e+000 8.693379e-002
      outer loop
         vertex 7.014193e+002 9.613653e-001 7.000000e+002
         vertex 7.014193e+002 8.096136e+001 7.000000e+002
         vertex 6.980118e+002 8.096136e+001 7.258820e+002
      endloop
   endfacet
   facet normal 9.847690e-001 0.000000e+000 1.738676e-001
      outer loop
         vertex 7.014193e+002 9.613653e-001 7.000000e+002
         vertex 6.980118e+002 8.096136e+001 7.258820e+002
         vertex 6.980118e+002 9.613653e-001 7.258820e+002
      endloop
   endfacet
   facet normal 9.397688e-001 0.000000e+000 3.418108e-001
      outer loop
         vertex 6.980118e+002 9.613653e-001 7.258820e+002
         vertex 6.980118e+002 8.096136e+001 7.258820e+002
         vertex 6.880218e+002 8.096136e+001 7.500000e+002
      endloop
   endfacet
   facet normal 9.062136e-001 0.000000e+000 4.228202e-001
      outer loop
         vertex 6.980118e+002 9.613653e-001 7.258820e+002
         vertex 6.880218e+002 8.096136e+001 7.500000e+002
         vertex 6.880218e+002 9.613653e-001 7.500000e+002
      endloop
   endfacet
   facet normal 8.192798e-001 0.000000e+000 5.733939e-001
      outer loop
         vertex 6.880218e+002 9.613653e-001 7.500000e+002
         vertex 6.880218e+002 8.096136e+001 7.500000e+002
         vertex 6.721299e+002 8.096136e+001 7.707107e+002
      endloop
   endfacet
   facet normal 7.659011e-001 0.000000e+000 6.429583e-001
      outer loop
         vertex 6.880218e+002 9.613653e-001 7.500000e+002
         vertex 6.721299e+002 8.096136e+001 7.707107e+002
         vertex 6.721299e+002 9.613653e-001 7.707107e+002
      endloop
   endfacet
   facet normal 6.429583e-001 0.000000e+000 7.659012e-001
      outer loop
         vertex 6.721299e+002 9.613653e-001 7.707107e+002
         vertex 6.721299e+002 8.096136e+001 7.707107e+002
         vertex 6.514192e+002 8.096136e+001 7.866025e+002
      endloop
   endfacet
   facet normal 5.733939e-001 0.000000e+000 8.192798e-001
      outer loop
         vertex 6.721299e+002 9.613653e-001 7.707107e+002
         vertex 6.514192e+002 8.096136e+001 7.866025e+002
         vertex 6.514192e+002 9.613653e-001 7.866025e+002
      endloop
   endfacet
   facet normal 4.228202e-001 0.000000e+000 9.062136e-001
      outer loop
         vertex 6.514192e+002 9.613653e-001 7.866025e+002
         vertex 6.514192e+002 8.096136e+001 7.866025e+002
         vertex 6.273011e+002 8.096136e+001 7.965926e+002
      endloop
   endfacet
   facet normal 3.418108e-001 0.000000e+000 9.397688e-001
      outer loop
         vertex 6.514192e+002 9.613653e-001 7.866025e+002
         vertex 6.273011e+002 8.096136e+001 7.965926e+002
         vertex 6.273011e+002 9.613653e-001 7.965926e+002
      endloop
   endfacet
   facet normal 1.738676e-001 0.000000e+000 9.847690e-001
      outer loop
         vertex 6.273011e+002 9.613653e-001 7.965926e+002
         vertex 6.273011e+002 8.096136e+001 7.965926e+002
         vertex 6.014192e+002 8.096136e+001 8.000000e+002
      endloop
   endfacet
   facet normal 8.693379e-002 0.000000e+000 9.962141e-001
      outer loop
         vertex 6.273011e+002 9.613653e-001 7.965926e+002
         vertex 6.014192e+002 8.096136e+001 8.000000e+002
         vertex 6.014192e+002 9.613653e-001 8.000000e+002
      endloop
   endfacet
   facet normal 0.000000e+000 0.000000e+000 -1.000000e+000
      outer loop
         vertex 6.014192e+002 8.096136e+001 6.000000e+002
         vertex 6.014192e+002 9.613653e-001 6.000000e+002
         vertex 1.014192e+002 8.096136e+001 6.000000e+002
      endloop
   endfacet
   facet normal 0.000000e+000 0.000000e+000 -1.000000e+000
      outer loop
         vertex 1.014192e+002 8.096136e+001 6.000000e+002
         vertex 6.014192e+002 9.613653e-001 6.000000e+002
         vertex 1.014192e+002 9.613653e-001 6.000000e+002
      endloop
   endfacet
   facet normal -8.693379e-002 0.000000e+000 9.962141e-001
      outer loop
         vertex 1.014192e+002 9.613653e-001 8.000000e+002
         vertex 1.014192e+002 8.096136e+001 8.000000e+002
         vertex 7.553727e+001 8.096136e+001 7.965926e+002
      endloop
   endfacet
   facet normal -1.738676e-001 0.000000e+000 9.847690e-001
      outer loop
         vertex 1.014192e+002 9.613653e-001 8.000000e+002
         vertex 7.553727e+001 8.096136e+001 7.965926e+002
         vertex 7.553727e+001 9.613653e-001 7.965926e+002
      endloop
   endfacet
   facet normal -3.418108e-001 0.000000e+000 9.397688e-001
      outer loop
         vertex 7.553727e+001 9.613653e-001 7.965926e+002
         vertex 7.553727e+001 8.096136e+001 7.965926e+002
         vertex 5.141918e+001 8.096136e+001 7.866025e+002
      endloop
   endfacet
   facet normal -4.228202e-001 0.000000e+000 9.062136e-001
      outer loop
         vertex 7.553727e+001 9.613653e-001 7.965926e+002
         vertex 5.141918e+001 8.096136e+001 7.866025e+002
         vertex 5.141918e+001 9.613653e-001 7.866025e+002
      endloop
   endfacet
   facet normal -5.733939e-001 0.000000e+000 8.192798e-001
      outer loop
         vertex 5.141918e+001 9.613653e-001 7.866025e+002
         vertex 5.141918e+001 8.096136e+001 7.866025e+002
         vertex 3.070850e+001 8.096136e+001 7.707107e+002
      endloop
   endfacet
   facet normal -6.429583e-001 0.000000e+000 7.659011e-001
      outer loop
         vertex 5.141918e+001 9.613653e-001 7.866025e+002
         vertex 3.070850e+001 8.096136e+001 7.707107e+002
         vertex 3.070850e+001 9.613653e-001 7.707107e+002
      endloop
   endfacet
   facet normal -7.659012e-001 0.000000e+000 6.429583e-001
      outer loop
         vertex 3.070850e+001 9.613653e-001 7.707107e+002
         vertex 3.070850e+001 8.096136e+001 7.707107e+002
         vertex 1.481665e+001 8.096136e+001 7.500000e+002
      endloop
   endfacet
   facet normal -8.192798e-001 0.000000e+000 5.733939e-001
      outer loop
         vertex 3.070850e+001 9.613653e-001 7.707107e+002
         vertex 1.481665e+001 8.096136e+001 7.500000e+002
         vertex 1.481665e+001 9.613653e-001 7.500000e+002
      endloop
   endfacet
   facet normal -9.062136e-001 0.000000e+000 4.228202e-001
      outer loop
         vertex 1.481665e+001 9.613653e-001 7.500000e+002
         vertex 1.481665e+001 8.096136e+001 7.500000e+002
         vertex 4.826612e+000 8.096136e+001 7.258820e+002
      endloop
   endfacet
   facet normal -9.397688e-001 0.000000e+000 3.418108e-001
      outer loop
         vertex 1.481665e+001 9.613653e-001 7.500000e+002
         vertex 4.826612e+000 8.096136e+001 7.258820e+002
         vertex 4.826612e+000 9.613653e-001 7.258820e+002
      endloop
   endfacet
   facet normal -9.847690e-001 0.000000e+000 1.738676e-001
      outer loop
         vertex 4.826612e+000 9.613653e-001 7.258820e+002
         vertex 4.826612e+000 8.096136e+001 7.258820e+002
         vertex 1.419194e+000 8.096136e+001 7.000000e+002
      endloop
   endfacet
   facet normal -9.962141e-001 0.000000e+000 8.693379e-002
      outer loop
         vertex 4.826612e+000 9.613653e-001 7.258820e+002
         vertex 1.419194e+000 8.096136e+001 7.000000e+002
         vertex 1.419194e+000 9.613653e-001 7.000000e+002
      endloop
   endfacet
   facet normal -9.962141e-001 0.000000e+000 -8.693379e-002
      outer loop
         vertex 1.419194e+000 9.613653e-001 7.000000e+002
         vertex 1.419194e+000 8.096136e+001 7.000000e+002
         vertex 4.826612e+000 8.096136e+001 6.741181e+002
      endloop
   endfacet
   facet normal -9.847690e-001 0.000000e+000 -1.738676e-001
      outer loop
         vertex 1.419194e+000 9.613653e-001 7.000000e+002
         vertex 4.826612e+000 8.096136e+001 6.741181e+002
         vertex 4.826612e+000 9.613653e-001 6.741181e+002
      endloop
   endfacet
   facet normal -9.397688e-001 0.000000e+000 -3.418108e-001
      outer loop
         vertex 4.826612e+000 9.613653e-001 6.741181e+002
         vertex 4.826612e+000 8.096136e+001 6.741181e+002
         vertex 1.481665e+001 8.096136e+001 6.500000e+002
      endloop
   endfacet
   facet normal -9.062136e-001 0.000000e+000 -4.228202e-001
      outer loop
         vertex 4.826612e+000 9.613653e-001 6.741181e+002
         vertex 1.481665e+001 8.096136e+001 6.500000e+002
         vertex 1.481665e+001 9.613653e-001 6.500000e+002
      endloop
   endfacet
   facet normal -8.192798e-001 0.000000e+000 -5.733939e-001
      outer loop
         vertex 1.481665e+001 9.613653e-001 6.500000e+002
         vertex 1.481665e+001 8.096136e+001 6.500000e+002
         vertex 3.070850e+001 8.096136e+001 6.292893e+002
      endloop
   endfacet
   facet normal -7.659011e-001 0.000000e+000 -6.429583e-001
      outer loop
         vertex 1.481665e+001 9.613653e-001 6.500000e+002
         vertex 3.070850e+001 8.096136e+001 6.292893e+002
         vertex 3.070850e+001 9.613653e-001 6.292893e+002
      endloop
   endfacet
   facet normal -6.429583e-001 0.000000e+000 -7.659012e-001
      outer loop
         vertex 3.070850e+001 9.613653e-001 6.292893e+002
         vertex 3.070850e+001 8.096136e+001 6.292893e+002
         vertex 5.141918e+001 8.096136e+001 6.133975e+002
      endloop
   endfacet
   facet normal -5.733939e-001 0.000000e+000 -8.192798e-001
      outer loop
         vertex 3.070850e+001 9.613653e-001 6.292893e+002
         vertex 5.141918e+001 8.096136e+001 6.133975e+002
         vertex 5.141918e+001 9.613653e-001 6.133975e+002
      endloop
   endfacet
   facet normal -4.228202e-001 0.000000e+000 -9.062136e-001
      outer loop
         vertex 5.141918e+001 9.613653e-001 6.133975e+002
         vertex 5.141918e+001 8.096136e+001 6.133975e+002
         vertex 7.553727e+001 8.096136e+001 6.034075e+002
      endloop
   endfacet
   facet normal -3.418108e-001 0.000000e+000 -9.397688e-001
      outer loop
         vertex 5.141918e+001 9.613653e-001 6.133975e+002
         vertex 7.553727e+001 8.096136e+001 6.034075e+002
         vertex 7.553727e+001 9.613653e-001 6.034075e+002
      endloop
   endfacet
   facet normal -1.738676e-001 0.000000e+000 -9.847690e-001
      outer loop
         vertex 7.553727e+001 9.613653e-001 6.034075e+002
         vertex 7.553727e+001 8.096136e+001 6.034075e+002
         vertex 1.014192e+002 8.096136e+001 6.000000e+002
      endloop
   endfacet
   facet normal -8.693379e-002 0.000000e+000 -9.962141e-001
      outer loop
         vertex 7.553727e+001 9.613653e-001 6.034075e+002
         vertex 1.014192e+002 8.096136e+001 6.000000e+002
         vertex 1.014192e+002 9.613653e-001 6.000000e+002
      endloop
   endfacet
   facet normal 0.000000e+000 -1.000000e+000 0.000000e+000
      outer loop
         vertex 6.880218e+002 9.613653e-001 7.500000e+002
         vertex 6.721299e+002 9.613653e-001 7.707107e+002
         vertex 6.414192e+002 9.613653e-001 7.400000e+002
      endloop
   endfacet
   facet normal 0.000000e+000 -1.000000e+000 0.000000e+000
      outer loop
         vertex 6.880218e+002 9.613653e-001 7.500000e+002
         vertex 6.414192e+002 9.613653e-001 7.400000e+002
         vertex 6.980118e+002 9.613653e-001 7.258820e+002
      endloop
   endfacet
   facet normal 0.000000e+000 -1.000000e+000 0.000000e+000
      outer loop
         vertex 1.014192e+002 9.613653e-001 6.000000e+002
         vertex 6.014192e+002 9.613653e-001 6.000000e+002
         vertex 5.614192e+002 9.613653e-001 6.600000e+002
      endloop
   endfacet
   facet normal 0.000000e+000 -1.000000e+000 0.000000e+000
      outer loop
         vertex 5.614192e+002 9.613653e-001 6.600000e+002
         vertex 6.014192e+002 9.613653e-001 6.000000e+002
         vertex 6.273011e+002 9.613653e-001 6.034075e+002
      endloop
   endfacet
   facet normal 0.000000e+000 -1.000000e+000 0.000000e+000
      outer loop
         vertex 5.614192e+002 9.613653e-001 6.600000e+002
         vertex 6.273011e+002 9.613653e-001 6.034075e+002
         vertex 6.414192e+002 9.613653e-001 6.600000e+002
      endloop
   endfacet
   facet normal 0.000000e+000 -1.000000e+000 0.000000e+000
      outer loop
         vertex 6.414192e+002 9.613653e-001 6.600000e+002
         vertex 6.273011e+002 9.613653e-001 6.034075e+002
         vertex 6.514192e+002 9.613653e-001 6.133975e+002
      endloop
   endfacet
   facet normal 0.000000e+000 -1.000000e+000 0.000000e+000
      outer loop
         vertex 6.414192e+002 9.613653e-001 6.600000e+002
         vertex 6.514192e+002 9.613653e-001 6.133975e+002
         vertex 6.721299e+002 9.613653e-001 6.292893e+002
      endloop
   endfacet
   facet normal 0.000000e+000 -1.000000e+000 0.000000e+000
      outer loop
         vertex 6.721299e+002 9.613653e-001 6.292893e+002
         vertex 6.880218e+002 9.613653e-001 6.500000e+002
         vertex 6.414192e+002 9.613653e-001 6.600000e+002
      endloop
   endfacet
   facet normal 0.000000e+000 -1.000000e+000 0.000000e+000
      outer loop
         vertex 6.414192e+002 9.613653e-001 6.600000e+002
         vertex 6.880218e+002 9.613653e-001 6.500000e+002
         vertex 6.980118e+002 9.613653e-001 6.741181e+002
      endloop
   endfacet
   facet normal 0.000000e+000 -1.000000e+000 0.000000e+000
      outer loop
         vertex 6.414192e+002 9.613653e-001 6.600000e+002
         vertex 6.980118e+002 9.613653e-001 6.741181e+002
         vertex 6.414192e+002 9.613653e-001 7.400000e+002
      endloop
   endfacet
   facet normal 0.000000e+000 -1.000000e+000 0.000000e+000
      outer loop
         vertex 6.414192e+002 9.613653e-001 7.400000e+002
         vertex 6.980118e+002 9.613653e-001 6.741181e+002
         vertex 7.014193e+002 9.613653e-001 7.000000e+002
      endloop
   endfacet
   facet normal 0.000000e+000 -1.000000e+000 0.000000e+000
      outer loop
         vertex 6.414192e+002 9.613653e-001 7.400000e+002
         vertex 7.014193e+002 9.613653e-001 7.000000e+002
         vertex 6.980118e+002 9.613653e-001 7.258820e+002
      endloop
   endfacet
   facet normal 0.000000e+000 -1.000000e+000 0.000000e+000
      outer loop
         vertex 1.014192e+002 9.613653e-001 8.000000e+002
         vertex 7.553727e+001 9.613653e-001 7.965926e+002
         vertex 5.141918e+001 9.613653e-001 7.866025e+002
      endloop
   endfacet
   facet normal 0.000000e+000 -1.000000e+000 0.000000e+000
      outer loop
         vertex 4.826612e+000 9.613653e-001 7.258820e+002
         vertex 1.419194e+000 9.613653e-001 7.000000e+002
         vertex 1.014192e+002 9.613653e-001 8.000000e+002
      endloop
   endfacet
   facet normal 0.000000e+000 -1.000000e+000 0.000000e+000
      outer loop
         vertex 1.014192e+002 9.613653e-001 8.000000e+002
         vertex 1.419194e+000 9.613653e-001 7.000000e+002
         vertex 4.826612e+000 9.613653e-001 6.741181e+002
      endloop
   endfacet
   facet normal 0.000000e+000 -1.000000e+000 0.000000e+000
      outer loop
         vertex 6.721299e+002 9.613653e-001 7.707107e+002
         vertex 6.514192e+002 9.613653e-001 7.866025e+002
         vertex 6.414192e+002 9.613653e-001 7.400000e+002
      endloop
   endfacet
   facet normal 0.000000e+000 -1.000000e+000 0.000000e+000
      outer loop
         vertex 6.414192e+002 9.613653e-001 7.400000e+002
         vertex 6.514192e+002 9.613653e-001 7.866025e+002
         vertex 6.273011e+002 9.613653e-001 7.965926e+002
      endloop
   endfacet
   facet normal 0.000000e+000 -1.000000e+000 0.000000e+000
      outer loop
         vertex 6.414192e+002 9.613653e-001 7.400000e+002
         vertex 6.273011e+002 9.613653e-001 7.965926e+002
         vertex 5.614192e+002 9.613653e-001 7.400000e+002
      endloop
   endfacet
   facet normal 0.000000e+000 -1.000000e+000 0.000000e+000
      outer loop
         vertex 5.614192e+002 9.613653e-001 7.400000e+002
         vertex 6.273011e+002 9.613653e-001 7.965926e+002
         vertex 6.014192e+002 9.613653e-001 8.000000e+002
      endloop
   endfacet
   facet normal 0.000000e+000 -1.000000e+000 0.000000e+000
      outer loop
         vertex 5.614192e+002 9.613653e-001 7.400000e+002
         vertex 6.014192e+002 9.613653e-001 8.000000e+002
         vertex 1.014192e+002 9.613653e-001 8.000000e+002
      endloop
   endfacet
   facet normal 0.000000e+000 -1.000000e+000 0.000000e+000
      outer loop
         vertex 5.141918e+001 9.613653e-001 7.866025e+002
         vertex 3.070850e+001 9.613653e-001 7.707107e+002
         vertex 1.014192e+002 9.613653e-001 8.000000e+002
      endloop
   endfacet
   facet normal 0.000000e+000 -1.000000e+000 0.000000e+000
      outer loop
         vertex 1.014192e+002 9.613653e-001 8.000000e+002
         vertex 3.070850e+001 9.613653e-001 7.707107e+002
         vertex 1.481665e+001 9.613653e-001 7.500000e+002
      endloop
   endfacet
   facet normal 0.000000e+000 -1.000000e+000 0.000000e+000
      outer loop
         vertex 1.014192e+002 9.613653e-001 8.000000e+002
         vertex 1.481665e+001 9.613653e-001 7.500000e+002
         vertex 4.826612e+000 9.613653e-001 7.258820e+002
      endloop
   endfacet
   facet normal 0.000000e+000 -1.000000e+000 0.000000e+000
      outer loop
         vertex 4.826612e+000 9.613653e-001 6.741181e+002
         vertex 1.481665e+001 9.613653e-001 6.500000e+002
         vertex 1.014192e+002 9.613653e-001 8.000000e+002
      endloop
   endfacet
   facet normal 0.000000e+000 -1.000000e+000 0.000000e+000
      outer loop
         vertex 1.014192e+002 9.613653e-001 8.000000e+002
         vertex 1.481665e+001 9.613653e-001 6.500000e+002
         vertex 3.070850e+001 9.613653e-001 6.292893e+002
      endloop
   endfacet
   facet normal 0.000000e+000 -1.000000e+000 0.000000e+000
      outer loop
         vertex 1.014192e+002 9.613653e-001 8.000000e+002
         vertex 3.070850e+001 9.613653e-001 6.292893e+002
         vertex 5.141918e+001 9.613653e-001 6.133975e+002
      endloop
   endfacet
   facet normal 0.000000e+000 -1.000000e+000 0.000000e+000
      outer loop
         vertex 5.614192e+002 9.613653e-001 6.600000e+002
         vertex 5.614192e+002 9.613653e-001 7.400000e+002
         vertex 1.014192e+002 9.613653e-001 6.000000e+002
      endloop
   endfacet
   facet normal 0.000000e+000 -1.000000e+000 0.000000e+000
      outer loop
         vertex 1.014192e+002 9.613653e-001 6.000000e+002
         vertex 5.614192e+002 9.613653e-001 7.400000e+002
         vertex 1.014192e+002 9.613653e-001 8.000000e+002
      endloop
   endfacet
   facet normal 0.000000e+000 -1.000000e+000 0.000000e+000
      outer loop
         vertex 1.014192e+002 9.613653e-001 6.000000e+002
         vertex 1.014192e+002 9.613653e-001 8.000000e+002
         vertex 7.553727e+001 9.613653e-001 6.034075e+002
      endloop
   endfacet
   facet normal 0.000000e+000 -1.000000e+000 0.000000e+000
      outer loop
         vertex 7.553727e+001 9.613653e-001 6.034075e+002
         vertex 1.014192e+002 9.613653e-001 8.000000e+002
         vertex 5.141918e+001 9.613653e-001 6.133975e+002
      endloop
   endfacet
endsolid