solid RobotPart4
   facet normal 0.000000e+000 -1.000000e+000 0.000000e+000
      outer loop
         vertex 3.054158e+001 2.647418e+000 4.300000e+002
         vertex 3.154449e+001 2.647418e+000 4.210992e+002
         vertex 1.095388e+002 2.647418e+000 4.389008e+002
      endloop
   endfacet
   facet normal 0.000000e+000 -1.000000e+000 0.000000e+000
      outer loop
         vertex 1.095388e+002 2.647418e+000 4.389008e+002
         vertex 3.154449e+001 2.647418e+000 4.210992e+002
         vertex 1.105416e+002 2.647418e+000 4.300000e+002
      endloop
   endfacet
   facet normal 0.000000e+000 -1.000000e+000 0.000000e+000
      outer loop
         vertex 1.105416e+002 2.647418e+000 4.300000e+002
         vertex 3.154449e+001 2.647418e+000 4.210992e+002
         vertex 1.095388e+002 2.647418e+000 4.210992e+002
      endloop
   endfacet
   facet normal 0.000000e+000 -1.000000e+000 0.000000e+000
      outer loop
         vertex 1.095388e+002 2.647418e+000 4.210992e+002
         vertex 3.154449e+001 2.647418e+000 4.210992e+002
         vertex 3.450285e+001 2.647418e+000 4.126447e+002
      endloop
   endfacet
   facet normal 0.000000e+000 -1.000000e+000 0.000000e+000
      outer loop
         vertex 1.095388e+002 2.647418e+000 4.210992e+002
         vertex 3.450285e+001 2.647418e+000 4.126447e+002
         vertex 3.926836e+001 2.647418e+000 4.050604e+002
      endloop
   endfacet
   facet normal 0.000000e+000 -1.000000e+000 0.000000e+000
      outer loop
         vertex 1.018148e+002 2.647418e+000 4.549396e+002
         vertex 9.548114e+001 2.647418e+000 4.612733e+002
         vertex 3.154449e+001 2.647418e+000 4.389008e+002
      endloop
   endfacet
   facet normal 0.000000e+000 -1.000000e+000 0.000000e+000
      outer loop
         vertex 3.154449e+001 2.647418e+000 4.389008e+002
         vertex 9.548114e+001 2.647418e+000 4.612733e+002
         vertex 8.789693e+001 2.647418e+000 4.660388e+002
      endloop
   endfacet
   facet normal 0.000000e+000 -1.000000e+000 0.000000e+000
      outer loop
         vertex 3.154449e+001 2.647418e+000 4.389008e+002
         vertex 8.789693e+001 2.647418e+000 4.660388e+002
         vertex 3.450285e+001 2.647418e+000 4.473553e+002
      endloop
   endfacet
   facet normal 0.000000e+000 -1.000000e+000 0.000000e+000
      outer loop
         vertex 9.548114e+001 2.647418e+000 3.987267e+002
         vertex 1.018148e+002 2.647418e+000 4.050604e+002
         vertex 3.926836e+001 2.647418e+000 4.050604e+002
      endloop
   endfacet
   facet normal 0.000000e+000 -1.000000e+000 0.000000e+000
      outer loop
         vertex 3.926836e+001 2.647418e+000 4.050604e+002
         vertex 1.018148e+002 2.647418e+000 4.050604e+002
         vertex 1.065804e+002 2.647418e+000 4.126447e+002
      endloop
   endfacet
   facet normal 0.000000e+000 -1.000000e+000 0.000000e+000
      outer loop
         vertex 3.926836e+001 2.647418e+000 4.050604e+002
         vertex 1.065804e+002 2.647418e+000 4.126447e+002
         vertex 1.095388e+002 2.647418e+000 4.210992e+002
      endloop
   endfacet
   facet normal 0.000000e+000 -1.000000e+000 0.000000e+000
      outer loop
         vertex 3.054158e+001 2.647418e+000 4.300000e+002
         vertex 1.095388e+002 2.647418e+000 4.389008e+002
         vertex 3.154449e+001 2.647418e+000 4.389008e+002
      endloop
   endfacet
   facet normal 0.000000e+000 -1.000000e+000 0.000000e+000
      outer loop
         vertex 3.154449e+001 2.647418e+000 4.389008e+002
         vertex 1.095388e+002 2.647418e+000 4.389008e+002
         vertex 1.065804e+002 2.647418e+000 4.473553e+002
      endloop
   endfacet
   facet normal 0.000000e+000 -1.000000e+000 0.000000e+000
      outer loop
         vertex 3.154449e+001 2.647418e+000 4.389008e+002
         vertex 1.065804e+002 2.647418e+000 4.473553e+002
         vertex 1.018148e+002 2.647418e+000 4.549396e+002
      endloop
   endfacet
   facet normal 0.000000e+000 -1.000000e+000 0.000000e+000
      outer loop
         vertex 7.054160e+001 2.647418e+000 4.700000e+002
         vertex 6.164078e+001 2.647418e+000 4.689971e+002
         vertex 3.926836e+001 2.647418e+000 4.549396e+002
      endloop
   endfacet
   facet normal 0.000000e+000 -1.000000e+000 0.000000e+000
      outer loop
         vertex 3.926836e+001 2.647418e+000 4.549396e+002
         vertex 6.164078e+001 2.647418e+000 4.689971e+002
         vertex 5.318628e+001 2.647418e+000 4.660388e+002
      endloop
   endfacet
   facet normal 0.000000e+000 -1.000000e+000 0.000000e+000
      outer loop
         vertex 3.926836e+001 2.647418e+000 4.549396e+002
         vertex 5.318628e+001 2.647418e+000 4.660388e+002
         vertex 4.560201e+001 2.647418e+000 4.612733e+002
      endloop
   endfacet
   facet normal 0.000000e+000 -1.000000e+000 0.000000e+000
      outer loop
         vertex 3.450285e+001 2.647418e+000 4.473553e+002
         vertex 8.789693e+001 2.647418e+000 4.660388e+002
         vertex 3.926836e+001 2.647418e+000 4.549396e+002
      endloop
   endfacet
   facet normal 0.000000e+000 -1.000000e+000 0.000000e+000
      outer loop
         vertex 3.926836e+001 2.647418e+000 4.549396e+002
         vertex 8.789693e+001 2.647418e+000 4.660388e+002
         vertex 7.944249e+001 2.647418e+000 4.689971e+002
      endloop
   endfacet
   facet normal 0.000000e+000 -1.000000e+000 0.000000e+000
      outer loop
         vertex 3.926836e+001 2.647418e+000 4.549396e+002
         vertex 7.944249e+001 2.647418e+000 4.689971e+002
         vertex 7.054160e+001 2.647418e+000 4.700000e+002
      endloop
   endfacet
   facet normal 0.000000e+000 -1.000000e+000 0.000000e+000
      outer loop
         vertex 4.560201e+001 2.647418e+000 3.987267e+002
         vertex 5.318628e+001 2.647418e+000 3.939612e+002
         vertex 3.926836e+001 2.647418e+000 4.050604e+002
      endloop
   endfacet
   facet normal 0.000000e+000 -1.000000e+000 0.000000e+000
      outer loop
         vertex 3.926836e+001 2.647418e+000 4.050604e+002
         vertex 5.318628e+001 2.647418e+000 3.939612e+002
         vertex 6.164078e+001 2.647418e+000 3.910029e+002
      endloop
   endfacet
   facet normal 0.000000e+000 -1.000000e+000 0.000000e+000
      outer loop
         vertex 3.926836e+001 2.647418e+000 4.050604e+002
         vertex 6.164078e+001 2.647418e+000 3.910029e+002
         vertex 7.054160e+001 2.647418e+000 3.900000e+002
      endloop
   endfacet
   facet normal 0.000000e+000 -1.000000e+000 0.000000e+000
      outer loop
         vertex 7.054160e+001 2.647418e+000 3.900000e+002
         vertex 7.944249e+001 2.647418e+000 3.910029e+002
         vertex 3.926836e+001 2.647418e+000 4.050604e+002
      endloop
   endfacet
   facet normal 0.000000e+000 -1.000000e+000 0.000000e+000
      outer loop
         vertex 3.926836e+001 2.647418e+000 4.050604e+002
         vertex 7.944249e+001 2.647418e+000 3.910029e+002
         vertex 8.789693e+001 2.647418e+000 3.939612e+002
      endloop
   endfacet
   facet normal 0.000000e+000 -1.000000e+000 0.000000e+000
      outer loop
         vertex 3.926836e+001 2.647418e+000 4.050604e+002
         vertex 8.789693e+001 2.647418e+000 3.939612e+002
         vertex 9.548114e+001 2.647418e+000 3.987267e+002
      endloop
   endfacet
   facet normal -7.459039e-002 0.000000e+000 -9.972143e-001
      outer loop
         vertex 7.054160e+001 6.264742e+001 3.900000e+002
         vertex 7.054160e+001 2.647418e+000 3.900000e+002
         vertex 6.164078e+001 2.647418e+000 3.910029e+002
      endloop
   endfacet
   facet normal -1.491808e-001 0.000000e+000 -9.888099e-001
      outer loop
         vertex 7.054160e+001 6.264742e+001 3.900000e+002
         vertex 6.164078e+001 2.647418e+000 3.910029e+002
         vertex 6.164078e+001 6.264742e+001 3.910029e+002
      endloop
   endfacet
   facet normal -2.946213e-001 0.000000e+000 -9.556141e-001
      outer loop
         vertex 6.164078e+001 6.264742e+001 3.910029e+002
         vertex 6.164078e+001 2.647418e+000 3.910029e+002
         vertex 5.318628e+001 2.647418e+000 3.939612e+002
      endloop
   endfacet
   facet normal -3.654715e-001 0.000000e+000 -9.308226e-001
      outer loop
         vertex 6.164078e+001 6.264742e+001 3.910029e+002
         vertex 5.318628e+001 2.647418e+000 3.939612e+002
         vertex 5.318628e+001 6.264742e+001 3.939612e+002
      endloop
   endfacet
   facet normal -4.998786e-001 0.000000e+000 -8.660955e-001
      outer loop
         vertex 5.318628e+001 6.264742e+001 3.939612e+002
         vertex 5.318628e+001 2.647418e+000 3.939612e+002
         vertex 4.560201e+001 2.647418e+000 3.987267e+002
      endloop
   endfacet
   facet normal -5.634358e-001 0.000000e+000 -8.261599e-001
      outer loop
         vertex 5.318628e+001 6.264742e+001 3.939612e+002
         vertex 4.560201e+001 2.647418e+000 3.987267e+002
         vertex 4.560201e+001 6.264742e+001 3.987267e+002
      endloop
   endfacet
   facet normal -6.800700e-001 0.000000e+000 -7.331472e-001
      outer loop
         vertex 4.560201e+001 6.264742e+001 3.987267e+002
         vertex 4.560201e+001 2.647418e+000 3.987267e+002
         vertex 3.926836e+001 2.647418e+000 4.050604e+002
      endloop
   endfacet
   facet normal -7.331471e-001 0.000000e+000 -6.800701e-001
      outer loop
         vertex 4.560201e+001 6.264742e+001 3.987267e+002
         vertex 3.926836e+001 2.647418e+000 4.050604e+002
         vertex 3.926836e+001 6.264742e+001 4.050604e+002
      endloop
   endfacet
   facet normal -8.261599e-001 0.000000e+000 -5.634358e-001
      outer loop
         vertex 3.926836e+001 6.264742e+001 4.050604e+002
         vertex 3.926836e+001 2.647418e+000 4.050604e+002
         vertex 3.450285e+001 2.647418e+000 4.126447e+002
      endloop
   endfacet
   facet normal -8.660954e-001 0.000000e+000 -4.998786e-001
      outer loop
         vertex 3.926836e+001 6.264742e+001 4.050604e+002
         vertex 3.450285e+001 2.647418e+000 4.126447e+002
         vertex 3.450285e+001 6.264742e+001 4.126447e+002
      endloop
   endfacet
   facet normal -9.308226e-001 0.000000e+000 -3.654715e-001
      outer loop
         vertex 3.450285e+001 6.264742e+001 4.126447e+002
         vertex 3.450285e+001 2.647418e+000 4.126447e+002
         vertex 3.154449e+001 2.647418e+000 4.210992e+002
      endloop
   endfacet
   facet normal -9.556141e-001 0.000000e+000 -2.946213e-001
      outer loop
         vertex 3.450285e+001 6.264742e+001 4.126447e+002
         vertex 3.154449e+001 2.647418e+000 4.210992e+002
         vertex 3.154449e+001 6.264742e+001 4.210992e+002
      endloop
   endfacet
   facet normal -9.888099e-001 0.000000e+000 -1.491808e-001
      outer loop
         vertex 3.154449e+001 6.264742e+001 4.210992e+002
         vertex 3.154449e+001 2.647418e+000 4.210992e+002
         vertex 3.054158e+001 2.647418e+000 4.300000e+002
      endloop
   endfacet
   facet normal -9.972143e-001 0.000000e+000 -7.459039e-002
      outer loop
         vertex 3.154449e+001 6.264742e+001 4.210992e+002
         vertex 3.054158e+001 2.647418e+000 4.300000e+002
         vertex 3.054158e+001 6.264742e+001 4.300000e+002
      endloop
   endfacet
   facet normal -9.972143e-001 0.000000e+000 7.459039e-002
      outer loop
         vertex 3.054158e+001 6.264742e+001 4.300000e+002
         vertex 3.054158e+001 2.647418e+000 4.300000e+002
         vertex 3.154449e+001 2.647418e+000 4.389008e+002
      endloop
   endfacet
   facet normal -9.888099e-001 0.000000e+000 1.491808e-001
      outer loop
         vertex 3.054158e+001 6.264742e+001 4.300000e+002
         vertex 3.154449e+001 2.647418e+000 4.389008e+002
         vertex 3.154449e+001 6.264742e+001 4.389008e+002
      endloop
   endfacet
   facet normal -9.556141e-001 0.000000e+000 2.946213e-001
      outer loop
         vertex 3.154449e+001 6.264742e+001 4.389008e+002
         vertex 3.154449e+001 2.647418e+000 4.389008e+002
         vertex 3.450285e+001 2.647418e+000 4.473553e+002
      endloop
   endfacet
   facet normal -9.308226e-001 0.000000e+000 3.654715e-001
      outer loop
         vertex 3.154449e+001 6.264742e+001 4.389008e+002
         vertex 3.450285e+001 2.647418e+000 4.473553e+002
         vertex 3.450285e+001 6.264742e+001 4.473553e+002
      endloop
   endfacet
   facet normal -8.660955e-001 0.000000e+000 4.998786e-001
      outer loop
         vertex 3.450285e+001 6.264742e+001 4.473553e+002
         vertex 3.450285e+001 2.647418e+000 4.473553e+002
         vertex 3.926836e+001 2.647418e+000 4.549396e+002
      endloop
   endfacet
   facet normal -8.261599e-001 0.000000e+000 5.634358e-001
      outer loop
         vertex 3.450285e+001 6.264742e+001 4.473553e+002
         vertex 3.926836e+001 2.647418e+000 4.549396e+002
         vertex 3.926836e+001 6.264742e+001 4.549396e+002
      endloop
   endfacet
   facet normal -7.331472e-001 0.000000e+000 6.800700e-001
      outer loop
         vertex 3.926836e+001 6.264742e+001 4.549396e+002
         vertex 3.926836e+001 2.647418e+000 4.549396e+002
         vertex 4.560201e+001 2.647418e+000 4.612733e+002
      endloop
   endfacet
   facet normal -6.800701e-001 0.000000e+000 7.331471e-001
      outer loop
         vertex 3.926836e+001 6.264742e+001 4.549396e+002
         vertex 4.560201e+001 2.647418e+000 4.612733e+002
         vertex 4.560201e+001 6.264742e+001 4.612733e+002
      endloop
   endfacet
   facet normal -5.634358e-001 0.000000e+000 8.261599e-001
      outer loop
         vertex 4.560201e+001 6.264742e+001 4.612733e+002
         vertex 4.560201e+001 2.647418e+000 4.612733e+002
         vertex 5.318628e+001 2.647418e+000 4.660388e+002
      endloop
   endfacet
   facet normal -4.998786e-001 0.000000e+000 8.660954e-001
      outer loop
         vertex 4.560201e+001 6.264742e+001 4.612733e+002
         vertex 5.318628e+001 2.647418e+000 4.660388e+002
         vertex 5.318628e+001 6.264742e+001 4.660388e+002
      endloop
   endfacet
   facet normal -3.654715e-001 0.000000e+000 9.308226e-001
      outer loop
         vertex 5.318628e+001 6.264742e+001 4.660388e+002
         vertex 5.318628e+001 2.647418e+000 4.660388e+002
         vertex 6.164078e+001 2.647418e+000 4.689971e+002
      endloop
   endfacet
   facet normal -2.946213e-001 0.000000e+000 9.556141e-001
      outer loop
         vertex 5.318628e+001 6.264742e+001 4.660388e+002
         vertex 6.164078e+001 2.647418e+000 4.689971e+002
         vertex 6.164078e+001 6.264742e+001 4.689971e+002
      endloop
   endfacet
   facet normal -1.491808e-001 0.000000e+000 9.888099e-001
      outer loop
         vertex 6.164078e+001 6.264742e+001 4.689971e+002
         vertex 6.164078e+001 2.647418e+000 4.689971e+002
         vertex 7.054160e+001 2.647418e+000 4.700000e+002
      endloop
   endfacet
   facet normal -7.459039e-002 0.000000e+000 9.972143e-001
      outer loop
         vertex 6.164078e+001 6.264742e+001 4.689971e+002
         vertex 7.054160e+001 2.647418e+000 4.700000e+002
         vertex 7.054160e+001 6.264742e+001 4.700000e+002
      endloop
   endfacet
   facet normal 7.459039e-002 0.000000e+000 9.972143e-001
      outer loop
         vertex 7.054160e+001 6.264742e+001 4.700000e+002
         vertex 7.054160e+001 2.647418e+000 4.700000e+002
         vertex 7.944249e+001 2.647418e+000 4.689971e+002
      endloop
   endfacet
   facet normal 1.491808e-001 0.000000e+000 9.888099e-001
      outer loop
         vertex 7.054160e+001 6.264742e+001 4.700000e+002
         vertex 7.944249e+001 2.647418e+000 4.689971e+002
         vertex 7.944249e+001 6.264742e+001 4.689971e+002
      endloop
   endfacet
   facet normal 2.946213e-001 0.000000e+000 9.556141e-001
      outer loop
         vertex 7.944249e+001 6.264742e+001 4.689971e+002
         vertex 7.944249e+001 2.647418e+000 4.689971e+002
         vertex 8.789693e+001 2.647418e+000 4.660388e+002
      endloop
   endfacet
   facet normal 3.654715e-001 0.000000e+000 9.308226e-001
      outer loop
         vertex 7.944249e+001 6.264742e+001 4.689971e+002
         vertex 8.789693e+001 2.647418e+000 4.660388e+002
         vertex 8.789693e+001 6.264742e+001 4.660388e+002
      endloop
   endfacet
   facet normal 4.998786e-001 0.000000e+000 8.660955e-001
      outer loop
         vertex 8.789693e+001 6.264742e+001 4.660388e+002
         vertex 8.789693e+001 2.647418e+000 4.660388e+002
         vertex 9.548114e+001 2.647418e+000 4.612733e+002
      endloop
   endfacet
   facet normal 5.634358e-001 0.000000e+000 8.261599e-001
      outer loop
         vertex 8.789693e+001 6.264742e+001 4.660388e+002
         vertex 9.548114e+001 2.647418e+000 4.612733e+002
         vertex 9.548114e+001 6.264742e+001 4.612733e+002
      endloop
   endfacet
   facet normal 6.800700e-001 0.000000e+000 7.331472e-001
      outer loop
         vertex 9.548114e+001 6.264742e+001 4.612733e+002
         vertex 9.548114e+001 2.647418e+000 4.612733e+002
         vertex 1.018148e+002 2.647418e+000 4.549396e+002
      endloop
   endfacet
   facet normal 7.331471e-001 0.000000e+000 6.800701e-001
      outer loop
         vertex 9.548114e+001 6.264742e+001 4.612733e+002
         vertex 1.018148e+002 2.647418e+000 4.549396e+002
         vertex 1.018148e+002 6.264742e+001 4.549396e+002
      endloop
   endfacet
   facet normal 8.261599e-001 0.000000e+000 5.634358e-001
      outer loop
         vertex 1.018148e+002 6.264742e+001 4.549396e+002
         vertex 1.018148e+002 2.647418e+000 4.549396e+002
         vertex 1.065804e+002 2.647418e+000 4.473553e+002
      endloop
   endfacet
   facet normal 8.660954e-001 0.000000e+000 4.998786e-001
      outer loop
         vertex 1.018148e+002 6.264742e+001 4.549396e+002
         vertex 1.065804e+002 2.647418e+000 4.473553e+002
         vertex 1.065804e+002 6.264742e+001 4.473553e+002
      endloop
   endfacet
   facet normal 9.308226e-001 0.000000e+000 3.654715e-001
      outer loop
         vertex 1.065804e+002 6.264742e+001 4.473553e+002
         vertex 1.065804e+002 2.647418e+000 4.473553e+002
         vertex 1.095388e+002 2.647418e+000 4.389008e+002
      endloop
   endfacet
   facet normal 9.556141e-001 0.000000e+000 2.946213e-001
      outer loop
         vertex 1.065804e+002 6.264742e+001 4.473553e+002
         vertex 1.095388e+002 2.647418e+000 4.389008e+002
         vertex 1.095388e+002 6.264742e+001 4.389008e+002
      endloop
   endfacet
   facet normal 9.888099e-001 0.000000e+000 1.491808e-001
      outer loop
         vertex 1.095388e+002 6.264742e+001 4.389008e+002
         vertex 1.095388e+002 2.647418e+000 4.389008e+002
         vertex 1.105416e+002 2.647418e+000 4.300000e+002
      endloop
   endfacet
   facet normal 9.972143e-001 0.000000e+000 7.459039e-002
      outer loop
         vertex 1.095388e+002 6.264742e+001 4.389008e+002
         vertex 1.105416e+002 2.647418e+000 4.300000e+002
         vertex 1.105416e+002 6.264742e+001 4.300000e+002
      endloop
   endfacet
   facet normal 9.972143e-001 0.000000e+000 -7.459039e-002
      outer loop
         vertex 1.105416e+002 6.264742e+001 4.300000e+002
         vertex 1.105416e+002 2.647418e+000 4.300000e+002
         vertex 1.095388e+002 2.647418e+000 4.210992e+002
      endloop
   endfacet
   facet normal 9.888099e-001 0.000000e+000 -1.491808e-001
      outer loop
         vertex 1.105416e+002 6.264742e+001 4.300000e+002
         vertex 1.095388e+002 2.647418e+000 4.210992e+002
         vertex 1.095388e+002 6.264742e+001 4.210992e+002
      endloop
   endfacet
   facet normal 9.556141e-001 0.000000e+000 -2.946213e-001
      outer loop
         vertex 1.095388e+002 6.264742e+001 4.210992e+002
         vertex 1.095388e+002 2.647418e+000 4.210992e+002
         vertex 1.065804e+002 2.647418e+000 4.126447e+002
      endloop
   endfacet
   facet normal 9.308226e-001 0.000000e+000 -3.654715e-001
      outer loop
         vertex 1.095388e+002 6.264742e+001 4.210992e+002
         vertex 1.065804e+002 2.647418e+000 4.126447e+002
         vertex 1.065804e+002 6.264742e+001 4.126447e+002
      endloop
   endfacet
   facet normal 8.660955e-001 0.000000e+000 -4.998786e-001
      outer loop
         vertex 1.065804e+002 6.264742e+001 4.126447e+002
         vertex 1.065804e+002 2.647418e+000 4.126447e+002
         vertex 1.018148e+002 2.647418e+000 4.050604e+002
      endloop
   endfacet
   facet normal 8.261599e-001 0.000000e+000 -5.634358e-001
      outer loop
         vertex 1.065804e+002 6.264742e+001 4.126447e+002
         vertex 1.018148e+002 2.647418e+000 4.050604e+002
         vertex 1.018148e+002 6.264742e+001 4.050604e+002
      endloop
   endfacet
   facet normal 7.331472e-001 0.000000e+000 -6.800700e-001
      outer loop
         vertex 1.018148e+002 6.264742e+001 4.050604e+002
         vertex 1.018148e+002 2.647418e+000 4.050604e+002
         vertex 9.548114e+001 2.647418e+000 3.987267e+002
      endloop
   endfacet
   facet normal 6.800701e-001 0.000000e+000 -7.331471e-001
      outer loop
         vertex 1.018148e+002 6.264742e+001 4.050604e+002
         vertex 9.548114e+001 2.647418e+000 3.987267e+002
         vertex 9.548114e+001 6.264742e+001 3.987267e+002
      endloop
   endfacet
   facet normal 5.634358e-001 0.000000e+000 -8.261599e-001
      outer loop
         vertex 9.548114e+001 6.264742e+001 3.987267e+002
         vertex 9.548114e+001 2.647418e+000 3.987267e+002
         vertex 8.789693e+001 2.647418e+000 3.939612e+002
      endloop
   endfacet
   facet normal 4.998786e-001 0.000000e+000 -8.660954e-001
      outer loop
         vertex 9.548114e+001 6.264742e+001 3.987267e+002
         vertex 8.789693e+001 2.647418e+000 3.939612e+002
         vertex 8.789693e+001 6.264742e+001 3.939612e+002
      endloop
   endfacet
   facet normal 3.654715e-001 0.000000e+000 -9.308226e-001
      outer loop
         vertex 8.789693e+001 6.264742e+001 3.939612e+002
         vertex 8.789693e+001 2.647418e+000 3.939612e+002
         vertex 7.944249e+001 2.647418e+000 3.910029e+002
      endloop
   endfacet
   facet normal 2.946213e-001 0.000000e+000 -9.556141e-001
      outer loop
         vertex 8.789693e+001 6.264742e+001 3.939612e+002
         vertex 7.944249e+001 2.647418e+000 3.910029e+002
         vertex 7.944249e+001 6.264742e+001 3.910029e+002
      endloop
   endfacet
   facet normal 1.491808e-001 0.000000e+000 -9.888099e-001
      outer loop
         vertex 7.944249e+001 6.264742e+001 3.910029e+002
         vertex 7.944249e+001 2.647418e+000 3.910029e+002
         vertex 7.054160e+001 2.647418e+000 3.900000e+002
      endloop
   endfacet
   facet normal 7.459039e-002 0.000000e+000 -9.972143e-001
      outer loop
         vertex 7.944249e+001 6.264742e+001 3.910029e+002
         vertex 7.054160e+001 2.647418e+000 3.900000e+002
         vertex 7.054160e+001 6.264742e+001 3.900000e+002
      endloop
   endfacet
   facet normal 0.000000e+000 -1.000000e+000 0.000000e+000
      outer loop
         vertex 3.154449e+001 6.264742e+001 4.210992e+002
         vertex 4.763108e+000 6.264742e+001 4.060586e+002
         vertex 3.450285e+001 6.264742e+001 4.126447e+002
      endloop
   endfacet
   facet normal 0.000000e+000 -1.000000e+000 0.000000e+000
      outer loop
         vertex 3.450285e+001 6.264742e+001 4.126447e+002
         vertex 4.763108e+000 6.264742e+001 4.060586e+002
         vertex 9.919804e+000 6.264742e+001 3.950000e+002
      endloop
   endfacet
   facet normal 0.000000e+000 -1.000000e+000 0.000000e+000
      outer loop
         vertex 3.450285e+001 6.264742e+001 4.126447e+002
         vertex 9.919804e+000 6.264742e+001 3.950000e+002
         vertex 3.926836e+001 6.264742e+001 4.050604e+002
      endloop
   endfacet
   facet normal 0.000000e+000 -1.000000e+000 0.000000e+000
      outer loop
         vertex 3.926836e+001 6.264742e+001 4.050604e+002
         vertex 9.919804e+000 6.264742e+001 3.950000e+002
         vertex 1.691846e+001 6.264742e+001 3.850049e+002
      endloop
   endfacet
   facet normal 0.000000e+000 -1.000000e+000 0.000000e+000
      outer loop
         vertex 3.926836e+001 6.264742e+001 4.050604e+002
         vertex 1.691846e+001 6.264742e+001 3.850049e+002
         vertex 4.560201e+001 6.264742e+001 3.987267e+002
      endloop
   endfacet
   facet normal 0.000000e+000 -1.000000e+000 0.000000e+000
      outer loop
         vertex 4.560201e+001 6.264742e+001 3.987267e+002
         vertex 1.691846e+001 6.264742e+001 3.850049e+002
         vertex 2.554647e+001 6.264742e+001 3.763769e+002
      endloop
   endfacet
   facet normal 0.000000e+000 -1.000000e+000 0.000000e+000
      outer loop
         vertex 4.560201e+001 6.264742e+001 3.987267e+002
         vertex 2.554647e+001 6.264742e+001 3.763769e+002
         vertex 5.318628e+001 6.264742e+001 3.939612e+002
      endloop
   endfacet
   facet normal 0.000000e+000 -1.000000e+000 0.000000e+000
      outer loop
         vertex 1.065804e+002 6.264742e+001 4.126447e+002
         vertex 1.363201e+002 6.264742e+001 4.060586e+002
         vertex 1.095388e+002 6.264742e+001 4.210992e+002
      endloop
   endfacet
   facet normal 0.000000e+000 -1.000000e+000 0.000000e+000
      outer loop
         vertex 1.095388e+002 6.264742e+001 4.210992e+002
         vertex 1.363201e+002 6.264742e+001 4.060586e+002
         vertex 1.394782e+002 6.264742e+001 4.178446e+002
      endloop
   endfacet
   facet normal 0.000000e+000 -1.000000e+000 0.000000e+000
      outer loop
         vertex 1.095388e+002 6.264742e+001 4.210992e+002
         vertex 1.394782e+002 6.264742e+001 4.178446e+002
         vertex 1.105416e+002 6.264742e+001 4.300000e+002
      endloop
   endfacet
   facet normal 0.000000e+000 -1.000000e+000 0.000000e+000
      outer loop
         vertex 1.105416e+002 6.264742e+001 4.300000e+002
         vertex 1.394782e+002 6.264742e+001 4.178446e+002
         vertex 1.405417e+002 6.264742e+001 4.300000e+002
      endloop
   endfacet
   facet normal 0.000000e+000 -1.000000e+000 0.000000e+000
      outer loop
         vertex 1.105416e+002 6.264742e+001 4.300000e+002
         vertex 1.405417e+002 6.264742e+001 4.300000e+002
         vertex 1.095388e+002 6.264742e+001 4.389008e+002
      endloop
   endfacet
   facet normal 0.000000e+000 -1.000000e+000 0.000000e+000
      outer loop
         vertex 7.944249e+001 6.264742e+001 3.910029e+002
         vertex 9.448300e+001 6.264742e+001 3.642215e+002
         vertex 8.789693e+001 6.264742e+001 3.939612e+002
      endloop
   endfacet
   facet normal 0.000000e+000 -1.000000e+000 0.000000e+000
      outer loop
         vertex 8.789693e+001 6.264742e+001 3.939612e+002
         vertex 9.448300e+001 6.264742e+001 3.642215e+002
         vertex 1.055416e+002 6.264742e+001 3.693782e+002
      endloop
   endfacet
   facet normal 0.000000e+000 -1.000000e+000 0.000000e+000
      outer loop
         vertex 8.789693e+001 6.264742e+001 3.939612e+002
         vertex 1.055416e+002 6.264742e+001 3.693782e+002
         vertex 9.548114e+001 6.264742e+001 3.987267e+002
      endloop
   endfacet
   facet normal 0.000000e+000 -1.000000e+000 0.000000e+000
      outer loop
         vertex 9.548114e+001 6.264742e+001 3.987267e+002
         vertex 1.055416e+002 6.264742e+001 3.693782e+002
         vertex 1.155368e+002 6.264742e+001 3.763769e+002
      endloop
   endfacet
   facet normal 0.000000e+000 -1.000000e+000 0.000000e+000
      outer loop
         vertex 9.548114e+001 6.264742e+001 3.987267e+002
         vertex 1.155368e+002 6.264742e+001 3.763769e+002
         vertex 1.018148e+002 6.264742e+001 4.050604e+002
      endloop
   endfacet
   facet normal 0.000000e+000 -1.000000e+000 0.000000e+000
      outer loop
         vertex 1.018148e+002 6.264742e+001 4.050604e+002
         vertex 1.155368e+002 6.264742e+001 3.763769e+002
         vertex 1.241647e+002 6.264742e+001 3.850049e+002
      endloop
   endfacet
   facet normal 0.000000e+000 -1.000000e+000 0.000000e+000
      outer loop
         vertex 1.018148e+002 6.264742e+001 4.050604e+002
         vertex 1.241647e+002 6.264742e+001 3.850049e+002
         vertex 1.065804e+002 6.264742e+001 4.126447e+002
      endloop
   endfacet
   facet normal 0.000000e+000 -1.000000e+000 0.000000e+000
      outer loop
         vertex 1.065804e+002 6.264742e+001 4.126447e+002
         vertex 1.241647e+002 6.264742e+001 3.850049e+002
         vertex 1.311633e+002 6.264742e+001 3.950000e+002
      endloop
   endfacet
   facet normal 0.000000e+000 -1.000000e+000 0.000000e+000
      outer loop
         vertex 1.065804e+002 6.264742e+001 4.126447e+002
         vertex 1.311633e+002 6.264742e+001 3.950000e+002
         vertex 1.363201e+002 6.264742e+001 4.060586e+002
      endloop
   endfacet
   facet normal 0.000000e+000 -1.000000e+000 0.000000e+000
      outer loop
         vertex 2.554647e+001 6.264742e+001 3.763769e+002
         vertex 3.554158e+001 6.264742e+001 3.693782e+002
         vertex 5.318628e+001 6.264742e+001 3.939612e+002
      endloop
   endfacet
   facet normal 0.000000e+000 -1.000000e+000 0.000000e+000
      outer loop
         vertex 5.318628e+001 6.264742e+001 3.939612e+002
         vertex 3.554158e+001 6.264742e+001 3.693782e+002
         vertex 4.660020e+001 6.264742e+001 3.642215e+002
      endloop
   endfacet
   facet normal 0.000000e+000 -1.000000e+000 0.000000e+000
      outer loop
         vertex 5.318628e+001 6.264742e+001 3.939612e+002
         vertex 4.660020e+001 6.264742e+001 3.642215e+002
         vertex 6.164078e+001 6.264742e+001 3.910029e+002
      endloop
   endfacet
   facet normal 0.000000e+000 -1.000000e+000 0.000000e+000
      outer loop
         vertex 6.164078e+001 6.264742e+001 3.910029e+002
         vertex 4.660020e+001 6.264742e+001 3.642215e+002
         vertex 5.838625e+001 6.264742e+001 3.610634e+002
      endloop
   endfacet
   facet normal 0.000000e+000 -1.000000e+000 0.000000e+000
      outer loop
         vertex 6.164078e+001 6.264742e+001 3.910029e+002
         vertex 5.838625e+001 6.264742e+001 3.610634e+002
         vertex 7.054160e+001 6.264742e+001 3.900000e+002
      endloop
   endfacet
   facet normal 0.000000e+000 -1.000000e+000 0.000000e+000
      outer loop
         vertex 7.054160e+001 6.264742e+001 3.900000e+002
         vertex 5.838625e+001 6.264742e+001 3.610634e+002
         vertex 7.054160e+001 6.264742e+001 3.600000e+002
      endloop
   endfacet
   facet normal 0.000000e+000 -1.000000e+000 0.000000e+000
      outer loop
         vertex 7.054160e+001 6.264742e+001 3.900000e+002
         vertex 7.054160e+001 6.264742e+001 3.600000e+002
         vertex 7.944249e+001 6.264742e+001 3.910029e+002
      endloop
   endfacet
   facet normal 0.000000e+000 -1.000000e+000 0.000000e+000
      outer loop
         vertex 7.944249e+001 6.264742e+001 3.910029e+002
         vertex 7.054160e+001 6.264742e+001 3.600000e+002
         vertex 8.269702e+001 6.264742e+001 3.610634e+002
      endloop
   endfacet
   facet normal 0.000000e+000 -1.000000e+000 0.000000e+000
      outer loop
         vertex 7.944249e+001 6.264742e+001 3.910029e+002
         vertex 8.269702e+001 6.264742e+001 3.610634e+002
         vertex 9.448300e+001 6.264742e+001 3.642215e+002
      endloop
   endfacet
   facet normal 0.000000e+000 -1.000000e+000 0.000000e+000
      outer loop
         vertex 3.450285e+001 6.264742e+001 4.473553e+002
         vertex 4.763108e+000 6.264742e+001 4.539414e+002
         vertex 3.154449e+001 6.264742e+001 4.389008e+002
      endloop
   endfacet
   facet normal 0.000000e+000 -1.000000e+000 0.000000e+000
      outer loop
         vertex 3.154449e+001 6.264742e+001 4.389008e+002
         vertex 4.763108e+000 6.264742e+001 4.539414e+002
         vertex 1.605075e+000 6.264742e+001 4.421554e+002
      endloop
   endfacet
   facet normal 0.000000e+000 -1.000000e+000 0.000000e+000
      outer loop
         vertex 3.154449e+001 6.264742e+001 4.389008e+002
         vertex 1.605075e+000 6.264742e+001 4.421554e+002
         vertex 3.054158e+001 6.264742e+001 4.300000e+002
      endloop
   endfacet
   facet normal 0.000000e+000 -1.000000e+000 0.000000e+000
      outer loop
         vertex 3.054158e+001 6.264742e+001 4.300000e+002
         vertex 1.605075e+000 6.264742e+001 4.421554e+002
         vertex 5.416092e-001 6.264742e+001 4.300000e+002
      endloop
   endfacet
   facet normal 0.000000e+000 -1.000000e+000 0.000000e+000
      outer loop
         vertex 3.054158e+001 6.264742e+001 4.300000e+002
         vertex 5.416092e-001 6.264742e+001 4.300000e+002
         vertex 3.154449e+001 6.264742e+001 4.210992e+002
      endloop
   endfacet
   facet normal 0.000000e+000 -1.000000e+000 0.000000e+000
      outer loop
         vertex 3.154449e+001 6.264742e+001 4.210992e+002
         vertex 5.416092e-001 6.264742e+001 4.300000e+002
         vertex 1.605075e+000 6.264742e+001 4.178446e+002
      endloop
   endfacet
   facet normal 0.000000e+000 -1.000000e+000 0.000000e+000
      outer loop
         vertex 3.154449e+001 6.264742e+001 4.210992e+002
         vertex 1.605075e+000 6.264742e+001 4.178446e+002
         vertex 4.763108e+000 6.264742e+001 4.060586e+002
      endloop
   endfacet
   facet normal 0.000000e+000 -1.000000e+000 0.000000e+000
      outer loop
         vertex 6.164078e+001 6.264742e+001 4.689971e+002
         vertex 4.660020e+001 6.264742e+001 4.957785e+002
         vertex 5.318628e+001 6.264742e+001 4.660388e+002
      endloop
   endfacet
   facet normal 0.000000e+000 -1.000000e+000 0.000000e+000
      outer loop
         vertex 5.318628e+001 6.264742e+001 4.660388e+002
         vertex 4.660020e+001 6.264742e+001 4.957785e+002
         vertex 3.554158e+001 6.264742e+001 4.906218e+002
      endloop
   endfacet
   facet normal 0.000000e+000 -1.000000e+000 0.000000e+000
      outer loop
         vertex 5.318628e+001 6.264742e+001 4.660388e+002
         vertex 3.554158e+001 6.264742e+001 4.906218e+002
         vertex 4.560201e+001 6.264742e+001 4.612733e+002
      endloop
   endfacet
   facet normal 0.000000e+000 -1.000000e+000 0.000000e+000
      outer loop
         vertex 4.560201e+001 6.264742e+001 4.612733e+002
         vertex 3.554158e+001 6.264742e+001 4.906218e+002
         vertex 2.554647e+001 6.264742e+001 4.836231e+002
      endloop
   endfacet
   facet normal 0.000000e+000 -1.000000e+000 0.000000e+000
      outer loop
         vertex 4.560201e+001 6.264742e+001 4.612733e+002
         vertex 2.554647e+001 6.264742e+001 4.836231e+002
         vertex 3.926836e+001 6.264742e+001 4.549396e+002
      endloop
   endfacet
   facet normal 0.000000e+000 -1.000000e+000 0.000000e+000
      outer loop
         vertex 3.926836e+001 6.264742e+001 4.549396e+002
         vertex 2.554647e+001 6.264742e+001 4.836231e+002
         vertex 1.691846e+001 6.264742e+001 4.749951e+002
      endloop
   endfacet
   facet normal 0.000000e+000 -1.000000e+000 0.000000e+000
      outer loop
         vertex 3.926836e+001 6.264742e+001 4.549396e+002
         vertex 1.691846e+001 6.264742e+001 4.749951e+002
         vertex 3.450285e+001 6.264742e+001 4.473553e+002
      endloop
   endfacet
   facet normal 0.000000e+000 -1.000000e+000 0.000000e+000
      outer loop
         vertex 3.450285e+001 6.264742e+001 4.473553e+002
         vertex 1.691846e+001 6.264742e+001 4.749951e+002
         vertex 9.919804e+000 6.264742e+001 4.650000e+002
      endloop
   endfacet
   facet normal 0.000000e+000 -1.000000e+000 0.000000e+000
      outer loop
         vertex 3.450285e+001 6.264742e+001 4.473553e+002
         vertex 9.919804e+000 6.264742e+001 4.650000e+002
         vertex 4.763108e+000 6.264742e+001 4.539414e+002
      endloop
   endfacet
   facet normal 0.000000e+000 -1.000000e+000 0.000000e+000
      outer loop
         vertex 1.405417e+002 6.264742e+001 4.300000e+002
         vertex 1.394782e+002 6.264742e+001 4.421554e+002
         vertex 1.095388e+002 6.264742e+001 4.389008e+002
      endloop
   endfacet
   facet normal 0.000000e+000 -1.000000e+000 0.000000e+000
      outer loop
         vertex 1.095388e+002 6.264742e+001 4.389008e+002
         vertex 1.394782e+002 6.264742e+001 4.421554e+002
         vertex 1.363201e+002 6.264742e+001 4.539414e+002
      endloop
   endfacet
   facet normal 0.000000e+000 -1.000000e+000 0.000000e+000
      outer loop
         vertex 1.095388e+002 6.264742e+001 4.389008e+002
         vertex 1.363201e+002 6.264742e+001 4.539414e+002
         vertex 1.065804e+002 6.264742e+001 4.473553e+002
      endloop
   endfacet
   facet normal 0.000000e+000 -1.000000e+000 0.000000e+000
      outer loop
         vertex 1.065804e+002 6.264742e+001 4.473553e+002
         vertex 1.363201e+002 6.264742e+001 4.539414e+002
         vertex 1.311633e+002 6.264742e+001 4.650000e+002
      endloop
   endfacet
   facet normal 0.000000e+000 -1.000000e+000 0.000000e+000
      outer loop
         vertex 1.065804e+002 6.264742e+001 4.473553e+002
         vertex 1.311633e+002 6.264742e+001 4.650000e+002
         vertex 1.018148e+002 6.264742e+001 4.549396e+002
      endloop
   endfacet
   facet normal 0.000000e+000 -1.000000e+000 0.000000e+000
      outer loop
         vertex 1.018148e+002 6.264742e+001 4.549396e+002
         vertex 1.311633e+002 6.264742e+001 4.650000e+002
         vertex 1.241647e+002 6.264742e+001 4.749951e+002
      endloop
   endfacet
   facet normal 0.000000e+000 -1.000000e+000 0.000000e+000
      outer loop
         vertex 1.018148e+002 6.264742e+001 4.549396e+002
         vertex 1.241647e+002 6.264742e+001 4.749951e+002
         vertex 9.548114e+001 6.264742e+001 4.612733e+002
      endloop
   endfacet
   facet normal 0.000000e+000 -1.000000e+000 0.000000e+000
      outer loop
         vertex 9.548114e+001 6.264742e+001 4.612733e+002
         vertex 1.241647e+002 6.264742e+001 4.749951e+002
         vertex 1.155368e+002 6.264742e+001 4.836231e+002
      endloop
   endfacet
   facet normal 0.000000e+000 -1.000000e+000 0.000000e+000
      outer loop
         vertex 9.548114e+001 6.264742e+001 4.612733e+002
         vertex 1.155368e+002 6.264742e+001 4.836231e+002
         vertex 8.789693e+001 6.264742e+001 4.660388e+002
      endloop
   endfacet
   facet normal 0.000000e+000 -1.000000e+000 0.000000e+000
      outer loop
         vertex 1.155368e+002 6.264742e+001 4.836231e+002
         vertex 1.055416e+002 6.264742e+001 4.906218e+002
         vertex 8.789693e+001 6.264742e+001 4.660388e+002
      endloop
   endfacet
   facet normal 0.000000e+000 -1.000000e+000 0.000000e+000
      outer loop
         vertex 8.789693e+001 6.264742e+001 4.660388e+002
         vertex 1.055416e+002 6.264742e+001 4.906218e+002
         vertex 9.448300e+001 6.264742e+001 4.957785e+002
      endloop
   endfacet
   facet normal 0.000000e+000 -1.000000e+000 0.000000e+000
      outer loop
         vertex 8.789693e+001 6.264742e+001 4.660388e+002
         vertex 9.448300e+001 6.264742e+001 4.957785e+002
         vertex 7.944249e+001 6.264742e+001 4.689971e+002
      endloop
   endfacet
   facet normal 0.000000e+000 -1.000000e+000 0.000000e+000
      outer loop
         vertex 7.944249e+001 6.264742e+001 4.689971e+002
         vertex 9.448300e+001 6.264742e+001 4.957785e+002
         vertex 8.269702e+001 6.264742e+001 4.989365e+002
      endloop
   endfacet
   facet normal 0.000000e+000 -1.000000e+000 0.000000e+000
      outer loop
         vertex 7.944249e+001 6.264742e+001 4.689971e+002
         vertex 8.269702e+001 6.264742e+001 4.989365e+002
         vertex 7.054160e+001 6.264742e+001 4.700000e+002
      endloop
   endfacet
   facet normal 0.000000e+000 -1.000000e+000 0.000000e+000
      outer loop
         vertex 7.054160e+001 6.264742e+001 4.700000e+002
         vertex 8.269702e+001 6.264742e+001 4.989365e+002
         vertex 7.054160e+001 6.264742e+001 5.000000e+002
      endloop
   endfacet
   facet normal 0.000000e+000 -1.000000e+000 0.000000e+000
      outer loop
         vertex 7.054160e+001 6.264742e+001 4.700000e+002
         vertex 7.054160e+001 6.264742e+001 5.000000e+002
         vertex 6.164078e+001 6.264742e+001 4.689971e+002
      endloop
   endfacet
   facet normal 0.000000e+000 -1.000000e+000 0.000000e+000
      outer loop
         vertex 6.164078e+001 6.264742e+001 4.689971e+002
         vertex 7.054160e+001 6.264742e+001 5.000000e+002
         vertex 5.838625e+001 6.264742e+001 4.989365e+002
      endloop
   endfacet
   facet normal 0.000000e+000 -1.000000e+000 0.000000e+000
      outer loop
         vertex 6.164078e+001 6.264742e+001 4.689971e+002
         vertex 5.838625e+001 6.264742e+001 4.989365e+002
         vertex 4.660020e+001 6.264742e+001 4.957785e+002
      endloop
   endfacet
   facet normal 9.983120e-001 0.000000e+000 5.807914e-002
      outer loop
         vertex 1.405417e+002 6.264742e+001 4.300000e+002
         vertex 1.405417e+002 1.126474e+002 4.300000e+002
         vertex 1.394782e+002 1.126474e+002 4.421554e+002
      endloop
   endfacet
   facet normal 9.932307e-001 0.000000e+000 1.161583e-001
      outer loop
         vertex 1.405417e+002 6.264742e+001 4.300000e+002
         vertex 1.394782e+002 1.126474e+002 4.421554e+002
         vertex 1.394782e+002 6.264742e+001 4.421554e+002
      endloop
   endfacet
   facet normal 9.730600e-001 0.000000e+000 2.305519e-001
      outer loop
         vertex 1.394782e+002 6.264742e+001 4.421554e+002
         vertex 1.394782e+002 1.126474e+002 4.421554e+002
         vertex 1.363201e+002 1.126474e+002 4.539414e+002
      endloop
   endfacet
   facet normal 9.579706e-001 0.000000e+000 2.868663e-001
      outer loop
         vertex 1.394782e+002 6.264742e+001 4.421554e+002
         vertex 1.363201e+002 1.126474e+002 4.539414e+002
         vertex 1.363201e+002 6.264742e+001 4.539414e+002
      endloop
   endfacet
   facet normal 9.182422e-001 0.000000e+000 3.960194e-001
      outer loop
         vertex 1.363201e+002 6.264742e+001 4.539414e+002
         vertex 1.363201e+002 1.126474e+002 4.539414e+002
         vertex 1.311633e+002 1.126474e+002 4.650000e+002
      endloop
   endfacet
   facet normal 8.936031e-001 0.000000e+000 4.488580e-001
      outer loop
         vertex 1.363201e+002 6.264742e+001 4.539414e+002
         vertex 1.311633e+002 1.126474e+002 4.650000e+002
         vertex 1.311633e+002 6.264742e+001 4.650000e+002
      endloop
   endfacet
   facet normal 8.355240e-001 0.000000e+000 5.494540e-001
      outer loop
         vertex 1.311633e+002 6.264742e+001 4.650000e+002
         vertex 1.311633e+002 1.126474e+002 4.650000e+002
         vertex 1.241647e+002 1.126474e+002 4.749951e+002
      endloop
   endfacet
   facet normal 8.020839e-001 0.000000e+000 5.972114e-001
      outer loop
         vertex 1.311633e+002 6.264742e+001 4.650000e+002
         vertex 1.241647e+002 1.126474e+002 4.749951e+002
         vertex 1.241647e+002 6.264742e+001 4.749951e+002
      endloop
   endfacet
   facet normal 7.274188e-001 0.000000e+000 6.861938e-001
      outer loop
         vertex 1.241647e+002 6.264742e+001 4.749951e+002
         vertex 1.241647e+002 1.126474e+002 4.749951e+002
         vertex 1.155368e+002 1.126474e+002 4.836231e+002
      endloop
   endfacet
   facet normal 6.861938e-001 0.000000e+000 7.274188e-001
      outer loop
         vertex 1.241647e+002 6.264742e+001 4.749951e+002
         vertex 1.155368e+002 1.126474e+002 4.836231e+002
         vertex 1.155368e+002 6.264742e+001 4.836231e+002
      endloop
   endfacet
   facet normal 5.972114e-001 0.000000e+000 8.020839e-001
      outer loop
         vertex 1.155368e+002 6.264742e+001 4.836231e+002
         vertex 1.155368e+002 1.126474e+002 4.836231e+002
         vertex 1.055416e+002 1.126474e+002 4.906218e+002
      endloop
   endfacet
   facet normal 5.494540e-001 0.000000e+000 8.355240e-001
      outer loop
         vertex 1.155368e+002 6.264742e+001 4.836231e+002
         vertex 1.055416e+002 1.126474e+002 4.906218e+002
         vertex 1.055416e+002 6.264742e+001 4.906218e+002
      endloop
   endfacet
   facet normal 4.488580e-001 0.000000e+000 8.936031e-001
      outer loop
         vertex 1.055416e+002 6.264742e+001 4.906218e+002
         vertex 1.055416e+002 1.126474e+002 4.906218e+002
         vertex 9.448300e+001 1.126474e+002 4.957785e+002
      endloop
   endfacet
   facet normal 3.960194e-001 0.000000e+000 9.182422e-001
      outer loop
         vertex 1.055416e+002 6.264742e+001 4.906218e+002
         vertex 9.448300e+001 1.126474e+002 4.957785e+002
         vertex 9.448300e+001 6.264742e+001 4.957785e+002
      endloop
   endfacet
   facet normal 2.868663e-001 0.000000e+000 9.579706e-001
      outer loop
         vertex 9.448300e+001 6.264742e+001 4.957785e+002
         vertex 9.448300e+001 1.126474e+002 4.957785e+002
         vertex 8.269702e+001 1.126474e+002 4.989365e+002
      endloop
   endfacet
   facet normal 2.305519e-001 0.000000e+000 9.730600e-001
      outer loop
         vertex 9.448300e+001 6.264742e+001 4.957785e+002
         vertex 8.269702e+001 1.126474e+002 4.989365e+002
         vertex 8.269702e+001 6.264742e+001 4.989365e+002
      endloop
   endfacet
   facet normal 1.161583e-001 0.000000e+000 9.932307e-001
      outer loop
         vertex 8.269702e+001 6.264742e+001 4.989365e+002
         vertex 8.269702e+001 1.126474e+002 4.989365e+002
         vertex 7.054160e+001 1.126474e+002 5.000000e+002
      endloop
   endfacet
   facet normal 5.807914e-002 0.000000e+000 9.983120e-001
      outer loop
         vertex 8.269702e+001 6.264742e+001 4.989365e+002
         vertex 7.054160e+001 1.126474e+002 5.000000e+002
         vertex 7.054160e+001 6.264742e+001 5.000000e+002
      endloop
   endfacet
   facet normal -5.807914e-002 0.000000e+000 9.983120e-001
      outer loop
         vertex 7.054160e+001 6.264742e+001 5.000000e+002
         vertex 7.054160e+001 1.126474e+002 5.000000e+002
         vertex 5.838625e+001 1.126474e+002 4.989365e+002
      endloop
   endfacet
   facet normal -1.161583e-001 0.000000e+000 9.932307e-001
      outer loop
         vertex 7.054160e+001 6.264742e+001 5.000000e+002
         vertex 5.838625e+001 1.126474e+002 4.989365e+002
         vertex 5.838625e+001 6.264742e+001 4.989365e+002
      endloop
   endfacet
   facet normal -2.305519e-001 0.000000e+000 9.730600e-001
      outer loop
         vertex 5.838625e+001 6.264742e+001 4.989365e+002
         vertex 5.838625e+001 1.126474e+002 4.989365e+002
         vertex 4.660020e+001 1.126474e+002 4.957785e+002
      endloop
   endfacet
   facet normal -2.868663e-001 0.000000e+000 9.579706e-001
      outer loop
         vertex 5.838625e+001 6.264742e+001 4.989365e+002
         vertex 4.660020e+001 1.126474e+002 4.957785e+002
         vertex 4.660020e+001 6.264742e+001 4.957785e+002
      endloop
   endfacet
   facet normal -3.960194e-001 0.000000e+000 9.182422e-001
      outer loop
         vertex 4.660020e+001 6.264742e+001 4.957785e+002
         vertex 4.660020e+001 1.126474e+002 4.957785e+002
         vertex 3.554158e+001 1.126474e+002 4.906218e+002
      endloop
   endfacet
   facet normal -4.488580e-001 0.000000e+000 8.936031e-001
      outer loop
         vertex 4.660020e+001 6.264742e+001 4.957785e+002
         vertex 3.554158e+001 1.126474e+002 4.906218e+002
         vertex 3.554158e+001 6.264742e+001 4.906218e+002
      endloop
   endfacet
   facet normal -5.494540e-001 0.000000e+000 8.355240e-001
      outer loop
         vertex 3.554158e+001 6.264742e+001 4.906218e+002
         vertex 3.554158e+001 1.126474e+002 4.906218e+002
         vertex 2.554647e+001 1.126474e+002 4.836231e+002
      endloop
   endfacet
   facet normal -5.972114e-001 0.000000e+000 8.020839e-001
      outer loop
         vertex 3.554158e+001 6.264742e+001 4.906218e+002
         vertex 2.554647e+001 1.126474e+002 4.836231e+002
         vertex 2.554647e+001 6.264742e+001 4.836231e+002
      endloop
   endfacet
   facet normal -6.861938e-001 0.000000e+000 7.274188e-001
      outer loop
         vertex 2.554647e+001 6.264742e+001 4.836231e+002
         vertex 2.554647e+001 1.126474e+002 4.836231e+002
         vertex 1.691846e+001 1.126474e+002 4.749951e+002
      endloop
   endfacet
   facet normal -7.274188e-001 0.000000e+000 6.861938e-001
      outer loop
         vertex 2.554647e+001 6.264742e+001 4.836231e+002
         vertex 1.691846e+001 1.126474e+002 4.749951e+002
         vertex 1.691846e+001 6.264742e+001 4.749951e+002
      endloop
   endfacet
   facet normal -8.020839e-001 0.000000e+000 5.972114e-001
      outer loop
         vertex 1.691846e+001 6.264742e+001 4.749951e+002
         vertex 1.691846e+001 1.126474e+002 4.749951e+002
         vertex 9.919804e+000 1.126474e+002 4.650000e+002
      endloop
   endfacet
   facet normal -8.355240e-001 0.000000e+000 5.494540e-001
      outer loop
         vertex 1.691846e+001 6.264742e+001 4.749951e+002
         vertex 9.919804e+000 1.126474e+002 4.650000e+002
         vertex 9.919804e+000 6.264742e+001 4.650000e+002
      endloop
   endfacet
   facet normal -8.936031e-001 0.000000e+000 4.488580e-001
      outer loop
         vertex 9.919804e+000 6.264742e+001 4.650000e+002
         vertex 9.919804e+000 1.126474e+002 4.650000e+002
         vertex 4.763108e+000 1.126474e+002 4.539414e+002
      endloop
   endfacet
   facet normal -9.182422e-001 0.000000e+000 3.960194e-001
      outer loop
         vertex 9.919804e+000 6.264742e+001 4.650000e+002
         vertex 4.763108e+000 1.126474e+002 4.539414e+002
         vertex 4.763108e+000 6.264742e+001 4.539414e+002
      endloop
   endfacet
   facet normal -9.579706e-001 0.000000e+000 2.868663e-001
      outer loop
         vertex 4.763108e+000 6.264742e+001 4.539414e+002
         vertex 4.763108e+000 1.126474e+002 4.539414e+002
         vertex 1.605075e+000 1.126474e+002 4.421554e+002
      endloop
   endfacet
   facet normal -9.730600e-001 0.000000e+000 2.305519e-001
      outer loop
         vertex 4.763108e+000 6.264742e+001 4.539414e+002
         vertex 1.605075e+000 1.126474e+002 4.421554e+002
         vertex 1.605075e+000 6.264742e+001 4.421554e+002
      endloop
   endfacet
   facet normal -9.932307e-001 0.000000e+000 1.161583e-001
      outer loop
         vertex 1.605075e+000 6.264742e+001 4.421554e+002
         vertex 1.605075e+000 1.126474e+002 4.421554e+002
         vertex 5.416092e-001 1.126474e+002 4.300000e+002
      endloop
   endfacet
   facet normal -9.983120e-001 0.000000e+000 5.807914e-002
      outer loop
         vertex 1.605075e+000 6.264742e+001 4.421554e+002
         vertex 5.416092e-001 1.126474e+002 4.300000e+002
         vertex 5.416092e-001 6.264742e+001 4.300000e+002
      endloop
   endfacet
   facet normal -9.983120e-001 0.000000e+000 -5.807914e-002
      outer loop
         vertex 5.416092e-001 6.264742e+001 4.300000e+002
         vertex 5.416092e-001 1.126474e+002 4.300000e+002
         vertex 1.605075e+000 1.126474e+002 4.178446e+002
      endloop
   endfacet
   facet normal -9.932307e-001 0.000000e+000 -1.161583e-001
      outer loop
         vertex 5.416092e-001 6.264742e+001 4.300000e+002
         vertex 1.605075e+000 1.126474e+002 4.178446e+002
         vertex 1.605075e+000 6.264742e+001 4.178446e+002
      endloop
   endfacet
   facet normal -9.730600e-001 0.000000e+000 -2.305519e-001
      outer loop
         vertex 1.605075e+000 6.264742e+001 4.178446e+002
         vertex 1.605075e+000 1.126474e+002 4.178446e+002
         vertex 4.763108e+000 1.126474e+002 4.060586e+002
      endloop
   endfacet
   facet normal -9.579706e-001 0.000000e+000 -2.868663e-001
      outer loop
         vertex 1.605075e+000 6.264742e+001 4.178446e+002
         vertex 4.763108e+000 1.126474e+002 4.060586e+002
         vertex 4.763108e+000 6.264742e+001 4.060586e+002
      endloop
   endfacet
   facet normal -9.182422e-001 0.000000e+000 -3.960194e-001
      outer loop
         vertex 4.763108e+000 6.264742e+001 4.060586e+002
         vertex 4.763108e+000 1.126474e+002 4.060586e+002
         vertex 9.919804e+000 1.126474e+002 3.950000e+002
      endloop
   endfacet
   facet normal -8.936031e-001 0.000000e+000 -4.488580e-001
      outer loop
         vertex 4.763108e+000 6.264742e+001 4.060586e+002
         vertex 9.919804e+000 1.126474e+002 3.950000e+002
         vertex 9.919804e+000 6.264742e+001 3.950000e+002
      endloop
   endfacet
   facet normal -8.355240e-001 0.000000e+000 -5.494540e-001
      outer loop
         vertex 9.919804e+000 6.264742e+001 3.950000e+002
         vertex 9.919804e+000 1.126474e+002 3.950000e+002
         vertex 1.691846e+001 1.126474e+002 3.850049e+002
      endloop
   endfacet
   facet normal -8.020839e-001 0.000000e+000 -5.972114e-001
      outer loop
         vertex 9.919804e+000 6.264742e+001 3.950000e+002
         vertex 1.691846e+001 1.126474e+002 3.850049e+002
         vertex 1.691846e+001 6.264742e+001 3.850049e+002
      endloop
   endfacet
   facet normal -7.274188e-001 0.000000e+000 -6.861938e-001
      outer loop
         vertex 1.691846e+001 6.264742e+001 3.850049e+002
         vertex 1.691846e+001 1.126474e+002 3.850049e+002
         vertex 2.554647e+001 1.126474e+002 3.763769e+002
      endloop
   endfacet
   facet normal -6.861938e-001 0.000000e+000 -7.274188e-001
      outer loop
         vertex 1.691846e+001 6.264742e+001 3.850049e+002
         vertex 2.554647e+001 1.126474e+002 3.763769e+002
         vertex 2.554647e+001 6.264742e+001 3.763769e+002
      endloop
   endfacet
   facet normal -5.972114e-001 0.000000e+000 -8.020839e-001
      outer loop
         vertex 2.554647e+001 6.264742e+001 3.763769e+002
         vertex 2.554647e+001 1.126474e+002 3.763769e+002
         vertex 3.554158e+001 1.126474e+002 3.693782e+002
      endloop
   endfacet
   facet normal -5.494540e-001 0.000000e+000 -8.355240e-001
      outer loop
         vertex 2.554647e+001 6.264742e+001 3.763769e+002
         vertex 3.554158e+001 1.126474e+002 3.693782e+002
         vertex 3.554158e+001 6.264742e+001 3.693782e+002
      endloop
   endfacet
   facet normal -4.488580e-001 0.000000e+000 -8.936031e-001
      outer loop
         vertex 3.554158e+001 6.264742e+001 3.693782e+002
         vertex 3.554158e+001 1.126474e+002 3.693782e+002
         vertex 4.660020e+001 1.126474e+002 3.642215e+002
      endloop
   endfacet
   facet normal -3.960194e-001 0.000000e+000 -9.182422e-001
      outer loop
         vertex 3.554158e+001 6.264742e+001 3.693782e+002
         vertex 4.660020e+001 1.126474e+002 3.642215e+002
         vertex 4.660020e+001 6.264742e+001 3.642215e+002
      endloop
   endfacet
   facet normal -2.868663e-001 0.000000e+000 -9.579706e-001
      outer loop
         vertex 4.660020e+001 6.264742e+001 3.642215e+002
         vertex 4.660020e+001 1.126474e+002 3.642215e+002
         vertex 5.838625e+001 1.126474e+002 3.610634e+002
      endloop
   endfacet
   facet normal -2.305519e-001 0.000000e+000 -9.730600e-001
      outer loop
         vertex 4.660020e+001 6.264742e+001 3.642215e+002
         vertex 5.838625e+001 1.126474e+002 3.610634e+002
         vertex 5.838625e+001 6.264742e+001 3.610634e+002
      endloop
   endfacet
   facet normal -1.161583e-001 0.000000e+000 -9.932307e-001
      outer loop
         vertex 5.838625e+001 6.264742e+001 3.610634e+002
         vertex 5.838625e+001 1.126474e+002 3.610634e+002
         vertex 7.054160e+001 1.126474e+002 3.600000e+002
      endloop
   endfacet
   facet normal -5.807914e-002 0.000000e+000 -9.983120e-001
      outer loop
         vertex 5.838625e+001 6.264742e+001 3.610634e+002
         vertex 7.054160e+001 1.126474e+002 3.600000e+002
         vertex 7.054160e+001 6.264742e+001 3.600000e+002
      endloop
   endfacet
   facet normal 5.807914e-002 0.000000e+000 -9.983120e-001
      outer loop
         vertex 7.054160e+001 6.264742e+001 3.600000e+002
         vertex 7.054160e+001 1.126474e+002 3.600000e+002
         vertex 8.269702e+001 1.126474e+002 3.610634e+002
      endloop
   endfacet
   facet normal 1.161583e-001 0.000000e+000 -9.932307e-001
      outer loop
         vertex 7.054160e+001 6.264742e+001 3.600000e+002
         vertex 8.269702e+001 1.126474e+002 3.610634e+002
         vertex 8.269702e+001 6.264742e+001 3.610634e+002
      endloop
   endfacet
   facet normal 2.305519e-001 0.000000e+000 -9.730600e-001
      outer loop
         vertex 8.269702e+001 6.264742e+001 3.610634e+002
         vertex 8.269702e+001 1.126474e+002 3.610634e+002
         vertex 9.448300e+001 1.126474e+002 3.642215e+002
      endloop
   endfacet
   facet normal 2.868663e-001 0.000000e+000 -9.579706e-001
      outer loop
         vertex 8.269702e+001 6.264742e+001 3.610634e+002
         vertex 9.448300e+001 1.126474e+002 3.642215e+002
         vertex 9.448300e+001 6.264742e+001 3.642215e+002
      endloop
   endfacet
   facet normal 3.960194e-001 0.000000e+000 -9.182422e-001
      outer loop
         vertex 9.448300e+001 6.264742e+001 3.642215e+002
         vertex 9.448300e+001 1.126474e+002 3.642215e+002
         vertex 1.055416e+002 1.126474e+002 3.693782e+002
      endloop
   endfacet
   facet normal 4.488580e-001 0.000000e+000 -8.936031e-001
      outer loop
         vertex 9.448300e+001 6.264742e+001 3.642215e+002
         vertex 1.055416e+002 1.126474e+002 3.693782e+002
         vertex 1.055416e+002 6.264742e+001 3.693782e+002
      endloop
   endfacet
   facet normal 5.494540e-001 0.000000e+000 -8.355240e-001
      outer loop
         vertex 1.055416e+002 6.264742e+001 3.693782e+002
         vertex 1.055416e+002 1.126474e+002 3.693782e+002
         vertex 1.155368e+002 1.126474e+002 3.763769e+002
      endloop
   endfacet
   facet normal 5.972114e-001 0.000000e+000 -8.020839e-001
      outer loop
         vertex 1.055416e+002 6.264742e+001 3.693782e+002
         vertex 1.155368e+002 1.126474e+002 3.763769e+002
         vertex 1.155368e+002 6.264742e+001 3.763769e+002
      endloop
   endfacet
   facet normal 6.861938e-001 0.000000e+000 -7.274188e-001
      outer loop
         vertex 1.155368e+002 6.264742e+001 3.763769e+002
         vertex 1.155368e+002 1.126474e+002 3.763769e+002
         vertex 1.241647e+002 1.126474e+002 3.850049e+002
      endloop
   endfacet
   facet normal 7.274188e-001 0.000000e+000 -6.861938e-001
      outer loop
         vertex 1.155368e+002 6.264742e+001 3.763769e+002
         vertex 1.241647e+002 1.126474e+002 3.850049e+002
         vertex 1.241647e+002 6.264742e+001 3.850049e+002
      endloop
   endfacet
   facet normal 8.020839e-001 0.000000e+000 -5.972114e-001
      outer loop
         vertex 1.241647e+002 6.264742e+001 3.850049e+002
         vertex 1.241647e+002 1.126474e+002 3.850049e+002
         vertex 1.311633e+002 1.126474e+002 3.950000e+002
      endloop
   endfacet
   facet normal 8.355240e-001 0.000000e+000 -5.494540e-001
      outer loop
         vertex 1.241647e+002 6.264742e+001 3.850049e+002
         vertex 1.311633e+002 1.126474e+002 3.950000e+002
         vertex 1.311633e+002 6.264742e+001 3.950000e+002
      endloop
   endfacet
   facet normal 8.936031e-001 0.000000e+000 -4.488580e-001
      outer loop
         vertex 1.311633e+002 6.264742e+001 3.950000e+002
         vertex 1.311633e+002 1.126474e+002 3.950000e+002
         vertex 1.363201e+002 1.126474e+002 4.060586e+002
      endloop
   endfacet
   facet normal 9.182422e-001 0.000000e+000 -3.960194e-001
      outer loop
         vertex 1.311633e+002 6.264742e+001 3.950000e+002
         vertex 1.363201e+002 1.126474e+002 4.060586e+002
         vertex 1.363201e+002 6.264742e+001 4.060586e+002
      endloop
   endfacet
   facet normal 9.579706e-001 0.000000e+000 -2.868663e-001
      outer loop
         vertex 1.363201e+002 6.264742e+001 4.060586e+002
         vertex 1.363201e+002 1.126474e+002 4.060586e+002
         vertex 1.394782e+002 1.126474e+002 4.178446e+002
      endloop
   endfacet
   facet normal 9.730600e-001 0.000000e+000 -2.305519e-001
      outer loop
         vertex 1.363201e+002 6.264742e+001 4.060586e+002
         vertex 1.394782e+002 1.126474e+002 4.178446e+002
         vertex 1.394782e+002 6.264742e+001 4.178446e+002
      endloop
   endfacet
   facet normal 9.932307e-001 0.000000e+000 -1.161583e-001
      outer loop
         vertex 1.394782e+002 6.264742e+001 4.178446e+002
         vertex 1.394782e+002 1.126474e+002 4.178446e+002
         vertex 1.405417e+002 1.126474e+002 4.300000e+002
      endloop
   endfacet
   facet normal 9.983120e-001 0.000000e+000 -5.807914e-002
      outer loop
         vertex 1.394782e+002 6.264742e+001 4.178446e+002
         vertex 1.405417e+002 1.126474e+002 4.300000e+002
         vertex 1.405417e+002 6.264742e+001 4.300000e+002
      endloop
   endfacet
   facet normal 0.000000e+000 1.000000e+000 0.000000e+000
      outer loop
         vertex 1.394782e+002 1.126474e+002 4.421554e+002
         vertex 1.405417e+002 1.126474e+002 4.300000e+002
         vertex 9.919804e+000 1.126474e+002 3.950000e+002
      endloop
   endfacet
   facet normal 0.000000e+000 1.000000e+000 0.000000e+000
      outer loop
         vertex 9.919804e+000 1.126474e+002 3.950000e+002
         vertex 1.405417e+002 1.126474e+002 4.300000e+002
         vertex 1.394782e+002 1.126474e+002 4.178446e+002
      endloop
   endfacet
   facet normal 0.000000e+000 1.000000e+000 0.000000e+000
      outer loop
         vertex 9.919804e+000 1.126474e+002 3.950000e+002
         vertex 1.394782e+002 1.126474e+002 4.178446e+002
         vertex 1.691846e+001 1.126474e+002 3.850049e+002
      endloop
   endfacet
   facet normal 0.000000e+000 1.000000e+000 0.000000e+000
      outer loop
         vertex 1.691846e+001 1.126474e+002 3.850049e+002
         vertex 1.394782e+002 1.126474e+002 4.178446e+002
         vertex 2.554647e+001 1.126474e+002 3.763769e+002
      endloop
   endfacet
   facet normal 0.000000e+000 1.000000e+000 0.000000e+000
      outer loop
         vertex 4.763108e+000 1.126474e+002 4.060586e+002
         vertex 1.605075e+000 1.126474e+002 4.178446e+002
         vertex 1.311633e+002 1.126474e+002 4.650000e+002
      endloop
   endfacet
   facet normal 0.000000e+000 1.000000e+000 0.000000e+000
      outer loop
         vertex 1.311633e+002 1.126474e+002 4.650000e+002
         vertex 1.605075e+000 1.126474e+002 4.178446e+002
         vertex 5.416092e-001 1.126474e+002 4.300000e+002
      endloop
   endfacet
   facet normal 0.000000e+000 1.000000e+000 0.000000e+000
      outer loop
         vertex 5.416092e-001 1.126474e+002 4.300000e+002
         vertex 1.605075e+000 1.126474e+002 4.421554e+002
         vertex 1.311633e+002 1.126474e+002 4.650000e+002
      endloop
   endfacet
   facet normal 0.000000e+000 1.000000e+000 0.000000e+000
      outer loop
         vertex 1.311633e+002 1.126474e+002 4.650000e+002
         vertex 1.605075e+000 1.126474e+002 4.421554e+002
         vertex 4.763108e+000 1.126474e+002 4.539414e+002
      endloop
   endfacet
   facet normal 0.000000e+000 1.000000e+000 0.000000e+000
      outer loop
         vertex 1.311633e+002 1.126474e+002 4.650000e+002
         vertex 4.763108e+000 1.126474e+002 4.539414e+002
         vertex 1.241647e+002 1.126474e+002 4.749951e+002
      endloop
   endfacet
   facet normal 0.000000e+000 1.000000e+000 0.000000e+000
      outer loop
         vertex 1.241647e+002 1.126474e+002 4.749951e+002
         vertex 4.763108e+000 1.126474e+002 4.539414e+002
         vertex 1.155368e+002 1.126474e+002 4.836231e+002
      endloop
   endfacet
   facet normal 0.000000e+000 1.000000e+000 0.000000e+000
      outer loop
         vertex 4.763108e+000 1.126474e+002 4.060586e+002
         vertex 1.311633e+002 1.126474e+002 4.650000e+002
         vertex 9.919804e+000 1.126474e+002 3.950000e+002
      endloop
   endfacet
   facet normal 0.000000e+000 1.000000e+000 0.000000e+000
      outer loop
         vertex 9.919804e+000 1.126474e+002 3.950000e+002
         vertex 1.311633e+002 1.126474e+002 4.650000e+002
         vertex 1.363201e+002 1.126474e+002 4.539414e+002
      endloop
   endfacet
   facet normal 0.000000e+000 1.000000e+000 0.000000e+000
      outer loop
         vertex 9.919804e+000 1.126474e+002 3.950000e+002
         vertex 1.363201e+002 1.126474e+002 4.539414e+002
         vertex 1.394782e+002 1.126474e+002 4.421554e+002
      endloop
   endfacet
   facet normal 0.000000e+000 1.000000e+000 0.000000e+000
      outer loop
         vertex 1.311633e+002 1.126474e+002 3.950000e+002
         vertex 1.241647e+002 1.126474e+002 3.850049e+002
         vertex 3.554158e+001 1.126474e+002 3.693782e+002
      endloop
   endfacet
   facet normal 0.000000e+000 1.000000e+000 0.000000e+000
      outer loop
         vertex 1.155368e+002 1.126474e+002 4.836231e+002
         vertex 4.763108e+000 1.126474e+002 4.539414e+002
         vertex 1.055416e+002 1.126474e+002 4.906218e+002
      endloop
   endfacet
   facet normal 0.000000e+000 1.000000e+000 0.000000e+000
      outer loop
         vertex 1.055416e+002 1.126474e+002 4.906218e+002
         vertex 4.763108e+000 1.126474e+002 4.539414e+002
         vertex 9.919804e+000 1.126474e+002 4.650000e+002
      endloop
   endfacet
   facet normal 0.000000e+000 1.000000e+000 0.000000e+000
      outer loop
         vertex 1.055416e+002 1.126474e+002 4.906218e+002
         vertex 9.919804e+000 1.126474e+002 4.650000e+002
         vertex 1.691846e+001 1.126474e+002 4.749951e+002
      endloop
   endfacet
   facet normal 0.000000e+000 1.000000e+000 0.000000e+000
      outer loop
         vertex 1.241647e+002 1.126474e+002 3.850049e+002
         vertex 1.155368e+002 1.126474e+002 3.763769e+002
         vertex 3.554158e+001 1.126474e+002 3.693782e+002
      endloop
   endfacet
   facet normal 0.000000e+000 1.000000e+000 0.000000e+000
      outer loop
         vertex 3.554158e+001 1.126474e+002 3.693782e+002
         vertex 1.155368e+002 1.126474e+002 3.763769e+002
         vertex 1.055416e+002 1.126474e+002 3.693782e+002
      endloop
   endfacet
   facet normal 0.000000e+000 1.000000e+000 0.000000e+000
      outer loop
         vertex 3.554158e+001 1.126474e+002 3.693782e+002
         vertex 1.055416e+002 1.126474e+002 3.693782e+002
         vertex 4.660020e+001 1.126474e+002 3.642215e+002
      endloop
   endfacet
   facet normal 0.000000e+000 1.000000e+000 0.000000e+000
      outer loop
         vertex 1.055416e+002 1.126474e+002 3.693782e+002
         vertex 9.448300e+001 1.126474e+002 3.642215e+002
         vertex 8.269702e+001 1.126474e+002 3.610634e+002
      endloop
   endfacet
   facet normal 0.000000e+000 1.000000e+000 0.000000e+000
      outer loop
         vertex 8.269702e+001 1.126474e+002 4.989365e+002
         vertex 3.554158e+001 1.126474e+002 4.906218e+002
         vertex 7.054160e+001 1.126474e+002 5.000000e+002
      endloop
   endfacet
   facet normal 0.000000e+000 1.000000e+000 0.000000e+000
      outer loop
         vertex 7.054160e+001 1.126474e+002 5.000000e+002
         vertex 3.554158e+001 1.126474e+002 4.906218e+002
         vertex 4.660020e+001 1.126474e+002 4.957785e+002
      endloop
   endfacet
   facet normal 0.000000e+000 1.000000e+000 0.000000e+000
      outer loop
         vertex 7.054160e+001 1.126474e+002 5.000000e+002
         vertex 4.660020e+001 1.126474e+002 4.957785e+002
         vertex 5.838625e+001 1.126474e+002 4.989365e+002
      endloop
   endfacet
   facet normal 0.000000e+000 1.000000e+000 0.000000e+000
      outer loop
         vertex 2.554647e+001 1.126474e+002 3.763769e+002
         vertex 1.394782e+002 1.126474e+002 4.178446e+002
         vertex 3.554158e+001 1.126474e+002 3.693782e+002
      endloop
   endfacet
   facet normal 0.000000e+000 1.000000e+000 0.000000e+000
      outer loop
         vertex 3.554158e+001 1.126474e+002 3.693782e+002
         vertex 1.394782e+002 1.126474e+002 4.178446e+002
         vertex 1.363201e+002 1.126474e+002 4.060586e+002
      endloop
   endfacet
   facet normal 0.000000e+000 1.000000e+000 0.000000e+000
      outer loop
         vertex 3.554158e+001 1.126474e+002 3.693782e+002
         vertex 1.363201e+002 1.126474e+002 4.060586e+002
         vertex 1.311633e+002 1.126474e+002 3.950000e+002
      endloop
   endfacet
   facet normal 0.000000e+000 1.000000e+000 0.000000e+000
      outer loop
         vertex 8.269702e+001 1.126474e+002 3.610634e+002
         vertex 7.054160e+001 1.126474e+002 3.600000e+002
         vertex 1.055416e+002 1.126474e+002 3.693782e+002
      endloop
   endfacet
   facet normal 0.000000e+000 1.000000e+000 0.000000e+000
      outer loop
         vertex 1.055416e+002 1.126474e+002 3.693782e+002
         vertex 7.054160e+001 1.126474e+002 3.600000e+002
         vertex 5.838625e+001 1.126474e+002 3.610634e+002
      endloop
   endfacet
   facet normal 0.000000e+000 1.000000e+000 0.000000e+000
      outer loop
         vertex 1.055416e+002 1.126474e+002 3.693782e+002
         vertex 5.838625e+001 1.126474e+002 3.610634e+002
         vertex 4.660020e+001 1.126474e+002 3.642215e+002
      endloop
   endfacet
   facet normal 0.000000e+000 1.000000e+000 0.000000e+000
      outer loop
         vertex 1.691846e+001 1.126474e+002 4.749951e+002
         vertex 2.554647e+001 1.126474e+002 4.836231e+002
         vertex 1.055416e+002 1.126474e+002 4.906218e+002
      endloop
   endfacet
   facet normal 0.000000e+000 1.000000e+000 0.000000e+000
      outer loop
         vertex 1.055416e+002 1.126474e+002 4.906218e+002
         vertex 2.554647e+001 1.126474e+002 4.836231e+002
         vertex 3.554158e+001 1.126474e+002 4.906218e+002
      endloop
   endfacet
   facet normal 0.000000e+000 1.000000e+000 0.000000e+000
      outer loop
         vertex 1.055416e+002 1.126474e+002 4.906218e+002
         vertex 3.554158e+001 1.126474e+002 4.906218e+002
         vertex 9.448300e+001 1.126474e+002 4.957785e+002
      endloop
   endfacet
   facet normal 0.000000e+000 1.000000e+000 0.000000e+000
      outer loop
         vertex 9.448300e+001 1.126474e+002 4.957785e+002
         vertex 3.554158e+001 1.126474e+002 4.906218e+002
         vertex 8.269702e+001 1.126474e+002 4.989365e+002
      endloop
   endfacet
endsolid