**ABCDEFGHIJKLMNOPQRSTUVWXYZabcdefghijklmnopqrstuvwxyz**************************
**PARASOLID !"#$%&'()*+,-./:;<=>?@[\]^_`{|}~0123456789**************************
**PART1;
MC=Unknown;
MC_MODEL=unknown;
MC_ID=JACOB-PC;
OS=windows_64;
OS_RELEASE=Build 7601 Service Pack 1.0;
FRU=PRO/INTERFACE BY PTC, 2014090;
APPL=PRO/ENGINEER BY PTC, 2014090;
SITE=;
USER=Jacob;
FORMAT=text;
GUISE=transmit;
KEY=SCARA;
FILE=scara.x_t;
DATE=12-03-2018;
**PART2;
SCH=SCH_1000149_10004;
USFLD_SIZE=0;
**PART3;
**END_OF_HEADER*****************************************************************
T51 : TRANSMIT FILE created by modeller version 100014917 SCH_1000149_100040 10
 1 6 5 7 0 0 0 0 0 1e3 1e-8 0 0 0 1 0 1 521 79 13 2 SDL/TYSA_NAME80 1 3 0 2
 8017 0 0 0 0 0 0 0 0 TTTTTTTTTTTTT3 84 5 4 SCARA81 1 5 1 3 1 0 0 0 0 4 74 20 6
 1 0 5 0 0 0 0 0 0 0 0 0 0 0 0 0 0 0 0 0 0 0 70 7 0 1 0 0 4 1 20 4 6 6 1 T11 8
 2 0 1 9 0 1 0 62 0 0 12 9 37 11 13 0 0 0 0 1e3 1e-8 8 0 0 1 0 1 1 20 57 19 30
 23 54 31 84 5 10 LINK081 1 11 1 3 9 0 0 0 0 10 74 20 12 1 0 11 0 0 0 0 0 0 0 0
 0 0 0 0 0 0 0 0 0 0 0 70 13 0 9 0 0 4 1 20 4 12 12 1 T31 14 2 0 35 0 15 0 +0e0
 0e0 0e0 0e0 1e0 0e0 1e0 0e0 0e0 1e-1 31 15 3 0 37 14 16 0 +0e0 0e0 0e0 0e0 1e0
 0e0 -1e0 0e0 0e0 1e-1 30 16 4 0 47 15 17 0 +1e-1 0e0 0e0 0e0 -1e0 0e0 30 17 5
 0 43 16 18 0 +-1e-1 0e0 0e0 0e0 -1e0 0e0 31 18 6 0 45 17 19 0 +0e0 -5e-1 0e0
 0e0 1e0 0e0 1e0 0e0 0e0 1e-1 31 19 7 0 54 18 0 0 +0e0 -5e-1 0e0 0e0 1e0 0e0
 -1e0 0e0 0e0 1e-1 13 20 8 0 9 0 58 0 0 21 0 19 21 37 0 9 0 23 20 S13 22 9 0 0
 0 0 0 0 23 58 19 23 10 0 9 21 0 22 V29 24 11 0 25 0 26 1e-1 0e0 0e0 18 25 12 0
 53 27 0 24 ?9 29 26 13 0 27 24 28 -1e-1 0e0 0e0 18 27 14 0 52 29 25 26 ?9 29
 28 15 0 29 26 30 1e-1 -5e-1 0e0 18 29 16 0 60 31 27 28 ?9 29 30 17 0 31 28 0
 -1e-1 -5e-1 0e0 18 31 18 0 61 0 29 30 ?9 50 32 19 0 33 0 39 0 +0e0 0e0 0e0 0e0
 1e0 0e0 1e0 0e0 0e0 14 33 20 0 ?0 40 34 20 32 +0 0 0 40 22 15 34 21 0 38 33 0
 16 35 22 0 ?36 37 0 14 0 0 9 17 36 34 38 38 27 42 35 0 0 +16 37 23 0 ?38 43 35
 15 0 0 9 17 38 34 36 36 25 52 37 0 0 +51 39 24 0 40 32 49 0 +0e0 0e0 0e0 0e0
 1e0 0e0 1e-1 1e0 0e0 0e0 14 40 25 0 ?33 50 41 20 39 +0 0 33 50 22 15 41 26 0
 48 40 0 17 42 41 48 44 25 36 35 0 38 -16 43 27 0 ?56 45 37 17 0 0 9 17 44 41
 42 46 27 56 43 0 36 -16 45 28 0 ?46 47 43 18 0 0 9 17 46 41 44 48 31 60 45 0 0
 +16 47 29 0 ?48 54 45 16 0 0 9 17 48 41 46 42 29 53 47 0 0 +51 49 30 0 50 39
 57 0 +0e0 0e0 0e0 0e0 1e0 0e0 1e-1 1e0 0e0 0e0 14 50 31 0 ?40 58 51 20 49 +0 0
 40 58 22 15 51 32 0 56 50 0 17 52 51 56 53 27 38 37 0 44 -17 53 51 52 55 25 48
 47 0 42 -16 54 33 0 ?55 0 47 19 0 0 9 17 55 51 53 56 29 61 54 0 48 +17 56 51
 55 52 31 44 43 0 46 +50 57 34 0 58 49 0 0 +0e0 -5e-1 0e0 0e0 1e0 0e0 1e0 0e0
 0e0 14 58 35 0 ?50 0 59 20 57 -0 0 50 0 22 15 59 36 0 61 58 0 17 60 59 61 61
 29 46 45 0 55 -17 61 59 60 60 31 55 54 0 56 -11 62 3 0 1 63 0 1 8 173 0 0 12
 63 70 65 67 0 0 0 0 1e3 1e-8 62 0 0 1 0 1 1 85 164 84 103 88 161 104 84 5 64 LI
NK181 1 65 1 3 63 72 0 0 0 64 74 20 66 3 0 65 72 110 0 0 0 0 0 0 0 0 0 0 0 0 0
 0 0 0 0 70 67 0 63 0 0 4 3 20 4 66 66 1 T79 16 68 SDL/TYSA_DENSITY80 2 69 0 68
 8004 0 0 0 0 3 5 0 0 FFTFFFFFFFFFF2 3 83 1 70 7.84995898463689e3 84 7 71 KG/CU
 M81 2 72 2 69 63 0 65 0 0 70 71 30 73 3 0 112 0 74 0 +5e-1 0e0 -1e-1 -1e0 0e0
 0e0 31 74 4 0 114 73 75 0 +0e0 0e0 0e0 0e0 1e0 0e0 0e0 0e0 -1e0 1e-1 30 75 5 0
 116 74 76 0 +0e0 0e0 1e-1 1e0 0e0 0e0 31 76 6 0 118 75 77 0 +5e-1 0e0 0e0 0e0
 1e0 0e0 0e0 0e0 1e0 1e-1 30 77 7 0 126 76 78 0 +5e-1 0e0 -1e-1 0e0 1e0 0e0 30
 78 8 0 138 77 79 0 +5e-1 0e0 1e-1 0e0 1e0 0e0 30 79 9 0 149 78 80 0 +0e0 0e0
 1e-1 0e0 1e0 0e0 30 80 10 0 130 79 81 0 +0e0 0e0 -1e-1 0e0 1e0 0e0 30 81 11 0
 128 80 82 0 +5e-1 8e-2 -1e-1 -1e0 0e0 0e0 31 82 12 0 140 81 83 0 +5e-1 8e-2
 0e0 0e0 1e0 0e0 0e0 0e0 1e0 1e-1 30 83 13 0 151 82 84 0 +0e0 8e-2 1e-1 1e0 0e0
 0e0 31 84 14 0 161 83 0 0 +0e0 8e-2 0e0 0e0 1e0 0e0 0e0 0e0 -1e0 1e-1 13 85 15
 0 63 0 165 0 0 86 0 19 86 70 0 63 0 88 85 S13 87 16 0 0 0 0 0 0 88 165 19 88
 17 0 63 86 0 87 V29 89 18 0 90 0 91 5e-1 0e0 -1e-1 18 90 19 0 137 92 0 89 ?63
 29 91 20 0 92 89 93 0e0 0e0 -1e-1 18 92 21 0 160 94 90 91 ?63 29 93 22 0 94 91
 95 0e0 0e0 1e-1 18 94 23 0 159 96 92 93 ?63 29 95 24 0 96 93 97 5e-1 0e0 1e-1
 18 96 25 0 148 98 94 95 ?63 29 97 26 0 98 95 99 5e-1 8e-2 -1e-1 18 98 27 0 170
 100 96 97 ?63 29 99 28 0 100 97 101 0e0 8e-2 -1e-1 18 100 29 0 169 102 98 99 ?
63 29 101 30 0 102 99 103 0e0 8e-2 1e-1 18 102 31 0 172 104 100 101 ?63 29 103
 32 0 104 101 0 5e-1 8e-2 1e-1 18 104 33 0 171 0 102 103 ?63 50 105 34 0 106 0
 120 0 +0e0 0e0 0e0 0e0 1e0 0e0 1e0 0e0 0e0 14 106 35 110 ?0 121 111 85 105 -0
 0 0 121 87 79 15 107 SDL/TYSA_COLOUR80 1 108 0 107 8001 0 0 0 0 3 5 0 0 FFFFTFT
FFFFFF2 83 3 109 1e0 1e0 0e0 81 1 110 36 108 106 0 0 167 0 109 15 111 37 0 119
 106 0 16 112 38 0 ?125 114 0 73 0 0 63 17 113 111 119 115 90 125 112 0 0 -16
 114 39 0 ?159 116 112 74 0 0 63 17 115 111 113 117 92 159 114 0 0 -16 116 40 0
 ?148 118 114 75 0 0 63 17 117 111 115 119 94 148 116 0 0 -16 118 41 0 ?137 126
 116 76 0 0 63 17 119 111 117 113 96 137 118 0 0 -50 120 42 0 121 105 132 0 +
5e-1 0e0 -1e-1 0e0 0e0 -1e0 -1e0 0e0 0e0 14 121 43 123 ?106 133 124 85 120 +0 0
 106 133 87 83 3 122 1e0 1e0 0e0 81 1 123 44 108 121 0 0 0 135 122 15 124 45 0
 131 121 0 17 125 124 131 127 92 113 112 0 115 +16 126 46 0 ?142 128 118 77 0 0
 63 17 127 124 125 129 90 142 126 0 113 -16 128 47 0 ?169 130 126 81 0 0 63 17
 129 124 127 131 98 169 128 0 0 -16 130 48 0 ?131 138 128 80 0 0 63 17 131 124
 129 125 100 160 130 0 0 +51 132 49 0 133 120 143 0 +5e-1 0e0 0e0 0e0 1e0 0e0
 1e-1 1e0 0e0 0e0 14 133 50 135 ?121 144 136 85 132 +0 0 121 144 87 83 3 134
 1e0 1e0 0e0 81 1 135 51 108 133 0 0 123 146 134 15 136 52 0 142 133 0 17 137
 136 142 139 90 119 118 0 127 +16 138 53 0 ?153 140 130 78 0 0 63 17 139 136
 137 141 96 153 138 0 119 -16 140 54 0 ?170 149 138 82 0 0 63 17 141 136 139
 142 104 170 140 0 0 -17 142 136 141 137 98 127 126 0 129 +50 143 55 0 144 132
 154 0 +0e0 0e0 1e-1 0e0 0e0 1e0 1e0 0e0 0e0 14 144 56 146 ?133 155 147 85 143 +
0 0 133 155 87 83 3 145 1e0 1e0 0e0 81 1 146 57 108 144 0 0 135 157 145 15 147
 58 0 153 144 0 17 148 147 153 150 96 117 116 0 139 +16 149 59 0 ?163 151 140
 79 0 0 63 17 150 147 148 152 94 163 149 0 117 -16 151 60 0 ?171 161 149 83 0 0
 63 17 152 147 150 153 102 171 151 0 0 -17 153 147 152 148 104 139 138 0 141 +
51 154 61 0 155 143 164 0 +0e0 0e0 0e0 0e0 1e0 0e0 1e-1 1e0 0e0 0e0 14 155 62
 157 ?144 165 158 85 154 +0 0 144 165 87 83 3 156 1e0 1e0 0e0 81 1 157 63 108
 155 0 0 146 167 156 15 158 64 0 163 155 0 17 159 158 163 160 94 115 114 0 150 +
17 160 158 159 162 92 131 130 0 125 -16 161 65 0 ?172 0 151 84 0 0 63 17 162
 158 160 163 100 172 161 0 131 -17 163 158 162 159 102 150 149 0 152 +50 164 66
 0 165 154 0 0 +0e0 8e-2 0e0 0e0 1e0 0e0 1e0 0e0 0e0 14 165 67 167 ?155 0 168
 85 164 +0 0 155 0 87 83 3 166 1e0 1e0 0e0 81 1 167 68 108 165 0 0 157 110 166
 15 168 69 0 172 165 0 17 169 168 172 170 100 129 128 0 162 +17 170 168 169 171
 98 141 140 0 142 +17 171 168 170 172 104 152 151 0 153 +17 172 168 171 169 102
 162 161 0 163 +11 173 4 0 1 174 0 1 62 366 0 0 12 174 128 176 178 0 0 0 0 1e3
 1e-8 173 0 0 1 0 1 1 206 357 205 240 209 353 241 84 5 175 LINK281 1 176 1 3
 174 181 0 0 0 175 74 20 177 3 0 176 181 245 0 0 0 0 0 0 0 0 0 0 0 0 0 0 0 0 0
 70 178 0 174 0 0 4 3 20 4 177 177 1 T83 1 179 7.84995898463689e3 84 7 180 KG/CU
 M81 2 181 2 69 174 0 176 0 0 179 180 31 182 3 0 247 0 183 0 +5e-1 8e-2 0e0 0e0
 1e0 0e0 0e0 0e0 -1e0 1e-1 30 183 4 0 249 182 184 0 +5e-1 8e-2 1e-1 1e0 0e0 0e0
 31 184 5 0 251 183 185 0 +1e0 8e-2 0e0 0e0 1e0 0e0 0e0 0e0 1e0 1e-1 30 185 6 0
 253 184 186 0 +1e0 8e-2 -1e-1 -1e0 0e0 0e0 30 186 7 0 256 185 187 0 +9.6e-1
 8e-2 -4e-2 0e0 0e0 1e0 30 187 8 0 258 186 188 0 +1.04e0 8e-2 -4e-2 -1e0 0e0
 0e0 30 188 9 0 260 187 189 0 +1.04e0 8e-2 4e-2 0e0 0e0 -1e0 30 189 10 0 262
 188 190 0 +9.6e-1 8e-2 4e-2 1e0 0e0 0e0 30 190 11 0 270 189 191 0 +5e-1 8e-2
 -1e-1 0e0 1e0 0e0 30 191 12 0 282 190 192 0 +1e0 8e-2 -1e-1 0e0 1e0 0e0 30 192
 13 0 293 191 193 0 +1e0 8e-2 1e-1 0e0 1e0 0e0 30 193 14 0 274 192 194 0 +5e-1
 8e-2 1e-1 0e0 1e0 0e0 31 194 15 0 272 193 195 0 +5e-1 1.6e-1 0e0 0e0 1e0 0e0
 0e0 0e0 -1e0 1e-1 30 195 16 0 284 194 196 0 +1e0 1.6e-1 -1e-1 -1e0 0e0 0e0 31
 196 17 0 295 195 197 0 +1e0 1.6e-1 0e0 0e0 1e0 0e0 0e0 0e0 1e0 1e-1 30 197 18
 0 305 196 198 0 +5e-1 1.6e-1 1e-1 1e0 0e0 0e0 30 198 19 0 318 197 199 0 +
9.6e-1 1.6e-1 -4e-2 0e0 0e0 1e0 30 199 20 0 320 198 200 0 +9.6e-1 1.6e-1 4e-2
 1e0 0e0 0e0 30 200 21 0 322 199 201 0 +1.04e0 1.6e-1 4e-2 0e0 0e0 -1e0 30 201
 22 0 324 200 202 0 +1.04e0 1.6e-1 -4e-2 -1e0 0e0 0e0 30 202 23 0 335 201 203 0
 +9.6e-1 1.6e-1 -4e-2 0e0 -1e0 0e0 30 203 24 0 332 202 204 0 +9.6e-1 1.6e-1
 4e-2 0e0 -1e0 0e0 30 204 25 0 343 203 205 0 +1.04e0 1.6e-1 4e-2 0e0 -1e0 0e0
 30 205 26 0 353 204 0 0 +1.04e0 1.6e-1 -4e-2 0e0 -1e0 0e0 13 206 27 0 174 0
 358 0 0 207 0 19 207 128 0 174 0 209 206 S13 208 28 0 0 0 0 0 0 209 358 19 209
 29 0 174 207 0 208 V29 210 30 0 211 0 212 5e-1 8e-2 -1e-1 18 211 31 0 281 213
 0 210 ?174 29 212 32 0 213 210 214 5e-1 8e-2 1e-1 18 213 33 0 304 215 211 212 ?
174 29 214 34 0 215 212 216 1e0 8e-2 1e-1 18 215 35 0 303 217 213 214 ?174 29
 216 36 0 217 214 218 1e0 8e-2 -1e-1 18 217 37 0 292 219 215 216 ?174 29 218 38
 0 219 216 220 5e-1 1.6e-1 -1e-1 18 219 39 0 314 221 217 218 ?174 29 220 40 0
 221 218 222 5e-1 1.6e-1 1e-1 18 221 41 0 313 223 219 220 ?174 29 222 42 0 223
 220 224 1e0 1.6e-1 1e-1 18 223 43 0 316 225 221 222 ?174 29 224 44 0 225 222
 226 1e0 1.6e-1 -1e-1 18 225 45 0 315 227 223 224 ?174 29 226 46 0 227 224 228
 9.6e-1 8e-2 -4e-2 18 227 47 0 363 229 225 226 ?174 29 228 48 0 229 226 230
 9.6e-1 8e-2 4e-2 18 229 49 0 342 231 227 228 ?174 29 230 50 0 231 228 232
 1.04e0 8e-2 4e-2 18 231 51 0 352 233 229 230 ?174 29 232 52 0 233 230 234
 1.04e0 8e-2 -4e-2 18 233 53 0 362 235 231 232 ?174 29 234 54 0 235 232 236
 9.6e-1 1.6e-1 -4e-2 18 235 55 0 364 237 233 234 ?174 29 236 56 0 237 234 238
 9.6e-1 1.6e-1 4e-2 18 237 57 0 346 239 235 236 ?174 29 238 58 0 239 236 240
 1.04e0 1.6e-1 4e-2 18 239 59 0 356 241 237 238 ?174 29 240 60 0 241 238 0
 1.04e0 1.6e-1 -4e-2 18 241 61 0 365 0 239 240 ?174 50 242 62 0 243 0 264 0 +
5e-1 8e-2 0e0 0e0 1e0 0e0 1e0 0e0 0e0 14 243 63 245 ?0 265 255 206 242 -0 0 0
 265 208 83 3 244 9.6e-1 9.6e-1 9.6e-1 81 1 245 64 108 243 0 0 360 0 244 15 246
 65 0 254 243 0 16 247 66 0 ?269 249 0 182 0 0 174 17 248 246 254 250 211 269
 247 0 0 -16 249 67 0 ?303 251 247 183 0 0 174 17 250 246 248 252 213 303 249 0
 0 -16 251 68 0 ?292 253 249 184 0 0 174 17 252 246 250 254 215 292 251 0 0 -16
 253 69 0 ?281 256 251 185 0 0 174 17 254 246 252 248 217 281 253 0 0 -15 255
 70 0 263 243 246 16 256 71 0 ?257 258 253 186 0 0 174 17 257 255 263 259 229
 331 256 0 0 +16 258 72 0 ?259 260 256 187 0 0 174 17 259 255 257 261 227 362
 258 0 0 +16 260 73 0 ?261 262 258 188 0 0 174 17 261 255 259 263 233 352 260 0
 0 +16 262 74 0 ?263 270 260 189 0 0 174 17 263 255 261 257 231 342 262 0 0 +51
 264 75 0 265 242 276 0 +5e-1 8e-2 0e0 0e0 1e0 0e0 1e-1 1e0 0e0 0e0 14 265 76
 267 ?243 277 268 206 264 +0 0 243 277 208 83 3 266 9.6e-1 9.6e-1 9.6e-1 81 1
 267 77 108 265 0 0 0 279 266 15 268 78 0 275 265 0 17 269 268 275 271 213 248
 247 0 250 +16 270 79 0 ?286 272 262 190 0 0 174 17 271 268 269 273 211 286 270
 0 248 -16 272 80 0 ?313 274 270 194 0 0 174 17 273 268 271 275 219 313 272 0 0
 -16 274 81 0 ?275 282 272 193 0 0 174 17 275 268 273 269 221 304 274 0 0 +50
 276 82 0 277 264 287 0 +1e0 8e-2 -1e-1 0e0 0e0 -1e0 -1e0 0e0 0e0 14 277 83 279
 ?265 288 280 206 276 +0 0 265 288 208 83 3 278 9.6e-1 9.6e-1 9.6e-1 81 1 279
 84 108 277 0 0 267 290 278 15 280 85 0 286 277 0 17 281 280 286 283 211 254
 253 0 271 +16 282 86 0 ?297 284 274 191 0 0 174 17 283 280 281 285 217 297 282
 0 254 -16 284 87 0 ?314 293 282 195 0 0 174 17 285 280 283 286 225 314 284 0 0
 -17 286 280 285 281 219 271 270 0 273 +51 287 88 0 288 276 298 0 +1e0 8e-2 0e0
 0e0 1e0 0e0 1e-1 1e0 0e0 0e0 14 288 89 290 ?277 299 291 206 287 +0 0 277 299
 208 83 3 289 9.6e-1 9.6e-1 9.6e-1 81 1 290 90 108 288 0 0 279 301 289 15 291
 91 0 297 288 0 17 292 291 297 294 217 252 251 0 283 +16 293 92 0 ?307 295 284
 192 0 0 174 17 294 291 292 296 215 307 293 0 252 -16 295 93 0 ?315 305 293 196
 0 0 174 17 296 291 294 297 223 315 295 0 0 -17 297 291 296 292 225 283 282 0
 285 +50 298 94 0 299 287 308 0 +5e-1 8e-2 1e-1 0e0 0e0 1e0 1e0 0e0 0e0 14 299
 95 301 ?288 309 302 206 298 +0 0 288 309 208 83 3 300 9.6e-1 9.6e-1 9.6e-1 81
 1 301 96 108 299 0 0 290 311 300 15 302 97 0 307 299 0 17 303 302 307 304 215
 250 249 0 294 +17 304 302 303 306 213 275 274 0 269 -16 305 98 0 ?316 318 295
 197 0 0 174 17 306 302 304 307 221 316 305 0 275 -17 307 302 306 303 223 294
 293 0 296 +50 308 99 0 309 298 326 0 +5e-1 1.6e-1 0e0 0e0 1e0 0e0 1e0 0e0 0e0
 14 309 100 311 ?299 327 317 206 308 +0 0 299 327 208 83 3 310 9.6e-1 9.6e-1
 9.6e-1 81 1 311 101 108 309 0 0 301 329 310 15 312 102 0 316 309 0 17 313 312
 316 314 221 273 272 0 306 +17 314 312 313 315 219 285 284 0 286 +17 315 312
 314 316 225 296 295 0 297 +17 316 312 315 313 223 306 305 0 307 +15 317 103 0
 325 309 312 16 318 104 0 ?334 320 305 198 0 0 174 17 319 317 325 321 235 334
 318 0 0 -16 320 105 0 ?345 322 318 199 0 0 174 17 321 317 319 323 237 345 320
 0 0 -16 322 106 0 ?355 324 320 200 0 0 174 17 323 317 321 325 239 355 322 0 0 -
16 324 107 0 ?364 332 322 201 0 0 174 17 325 317 323 319 241 364 324 0 0 -50
 326 108 0 327 308 337 0 +9.6e-1 1.6e-1 -4e-2 -1e0 0e0 0e0 0e0 0e0 1e0 14 327
 109 329 ?309 338 330 206 326 -0 0 309 338 208 83 3 328 9.6e-1 9.6e-1 9.6e-1 81
 1 329 110 108 327 0 0 311 340 328 15 330 111 0 336 327 0 17 331 330 336 333
 227 257 256 0 259 -16 332 112 0 ?333 335 324 203 0 0 174 17 333 330 331 334
 229 346 332 0 257 +17 334 330 333 336 237 319 318 0 321 +16 335 113 0 ?363 343
 332 202 0 0 174 17 336 330 334 331 235 363 335 0 319 -50 337 114 0 338 326 347
 0 +9.6e-1 1.6e-1 4e-2 0e0 0e0 1e0 1e0 0e0 0e0 14 338 115 340 ?327 348 341 206
 337 -0 0 327 348 208 83 3 339 9.6e-1 9.6e-1 9.6e-1 81 1 340 116 108 338 0 0
 329 350 339 15 341 117 0 346 338 0 17 342 341 346 344 229 263 262 0 333 -16
 343 118 0 ?344 353 335 204 0 0 174 17 344 341 342 345 231 356 343 0 263 +17
 345 341 344 346 239 321 320 0 323 +17 346 341 345 342 237 333 332 0 334 -50
 347 119 0 348 337 357 0 +1.04e0 1.6e-1 4e-2 1e0 0e0 0e0 0e0 0e0 -1e0 14 348
 120 350 ?338 358 351 206 347 -0 0 338 358 208 83 3 349 9.6e-1 9.6e-1 9.6e-1 81
 1 350 121 108 348 0 0 340 360 349 15 351 122 0 356 348 0 17 352 351 356 354
 231 261 260 0 344 -16 353 123 0 ?354 0 343 205 0 0 174 17 354 351 352 355 233
 365 353 0 261 +17 355 351 354 356 241 323 322 0 325 +17 356 351 355 352 239
 344 343 0 345 -50 357 124 0 358 347 0 0 +1.04e0 1.6e-1 -4e-2 0e0 0e0 -1e0 -1e0
 0e0 0e0 14 358 125 360 ?348 0 361 206 357 -0 0 348 0 208 83 3 359 9.6e-1
 9.6e-1 9.6e-1 81 1 360 126 108 358 0 0 350 245 359 15 361 127 0 365 358 0 17
 362 361 365 363 233 259 258 0 354 -17 363 361 362 364 227 336 335 0 331 +17
 364 361 363 365 235 325 324 0 336 +17 365 361 364 362 241 354 353 0 355 -11
 366 5 0 1 367 0 1 173 521 0 0 12 367 103 369 371 0 0 0 0 1e3 1e-8 366 0 0 1 0
 1 1 393 512 392 419 396 510 420 84 5 368 LINK381 1 369 1 3 367 374 0 0 0 368
 74 20 370 3 0 369 374 424 0 0 0 0 0 0 0 0 0 0 0 0 0 0 0 0 0 70 371 0 367 0 0 4
 3 20 4 370 370 1 T83 1 372 7.84995898463689e3 84 7 373 KG/CU M81 2 374 2 69
 367 0 369 0 0 372 373 30 375 3 0 426 0 376 0 +9.6e-1 4.8e-1 -4e-2 0e0 0e0 1e0
 30 376 4 0 428 375 377 0 +1.04e0 4.8e-1 -4e-2 -1e0 0e0 0e0 30 377 5 0 430 376
 378 0 +1.04e0 4.8e-1 4e-2 0e0 0e0 -1e0 30 378 6 0 432 377 379 0 +9.6e-1 4.8e-1
 4e-2 1e0 0e0 0e0 30 379 7 0 439 378 380 0 +9.6e-1 8e-2 -4e-2 0e0 0e0 1e0 30
 380 8 0 441 379 381 0 +9.6e-1 8e-2 -4e-2 0e0 1e0 0e0 31 381 9 0 451 380 382 0 +
1e0 8e-2 0e0 0e0 1e0 0e0 1e0 0e0 0e0 7.5e-2 31 382 10 0 453 381 383 0 +1e0 8e-2
 0e0 0e0 1e0 0e0 -1e0 0e0 0e0 7.5e-2 30 383 11 0 473 382 384 0 +1.075e0 8e-2
 0e0 0e0 -1e0 0e0 30 384 12 0 469 383 385 0 +9.25e-1 8e-2 0e0 0e0 -1e0 0e0 31
 385 13 0 471 384 386 0 +1e0 5e-2 0e0 0e0 1e0 0e0 1e0 0e0 0e0 7.5e-2 31 386 14
 0 482 385 387 0 +1e0 5e-2 0e0 0e0 1e0 0e0 -1e0 0e0 0e0 7.5e-2 30 387 15 0 457
 386 388 0 +9.6e-1 8e-2 4e-2 1e0 0e0 0e0 30 388 16 0 444 387 389 0 +9.6e-1 8e-2
 4e-2 0e0 1e0 0e0 30 389 17 0 459 388 390 0 +1.04e0 8e-2 4e-2 0e0 0e0 -1e0 30
 390 18 0 500 389 391 0 +1.04e0 8e-2 4e-2 0e0 1e0 0e0 30 391 19 0 461 390 392 0
 +1.04e0 8e-2 -4e-2 -1e0 0e0 0e0 30 392 20 0 510 391 0 0 +1.04e0 8e-2 -4e-2 0e0
 1e0 0e0 13 393 21 0 367 0 513 0 0 394 0 19 394 103 0 367 0 396 393 S13 395 22
 0 0 0 0 0 0 396 513 19 396 23 0 367 394 0 395 V29 397 24 0 398 0 399 9.6e-1
 4.8e-1 -4e-2 18 398 25 0 520 400 0 397 ?367 29 399 26 0 400 397 401 9.6e-1
 4.8e-1 4e-2 18 400 27 0 499 402 398 399 ?367 29 401 28 0 402 399 403 1.04e0
 4.8e-1 4e-2 18 402 29 0 509 404 400 401 ?367 29 403 30 0 404 401 405 1.04e0
 4.8e-1 -4e-2 18 404 31 0 519 406 402 403 ?367 29 405 32 0 406 403 407 1.075e0
 8e-2 0e0 18 406 33 0 481 408 404 405 ?367 29 407 34 0 408 405 409 9.25e-1 8e-2
 0e0 18 408 35 0 480 410 406 407 ?367 29 409 36 0 410 407 411 1.075e0 5e-2 0e0
 18 410 37 0 490 412 408 409 ?367 29 411 38 0 412 409 413 9.25e-1 5e-2 0e0 18
 412 39 0 491 414 410 411 ?367 29 413 40 0 414 411 415 9.6e-1 8e-2 -4e-2 18 414
 41 0 517 416 412 413 ?367 29 415 42 0 416 413 417 9.6e-1 8e-2 4e-2 18 416 43 0
 498 418 414 415 ?367 29 417 44 0 418 415 419 1.04e0 8e-2 4e-2 18 418 45 0 508
 420 416 417 ?367 29 419 46 0 420 417 0 1.04e0 8e-2 -4e-2 18 420 47 0 518 0 418
 419 ?367 50 421 48 0 422 0 434 0 +1e0 4.8e-1 0e0 0e0 1e0 0e0 1e0 0e0 0e0 14
 422 49 424 ?0 435 425 393 421 +0 0 0 435 395 83 3 423 1e0 0e0 0e0 81 1 424 50
 108 422 0 0 515 0 423 15 425 51 0 433 422 0 16 426 52 0 ?427 428 0 375 0 0 367
 17 427 425 433 429 400 443 426 0 0 +16 428 53 0 ?429 430 426 376 0 0 367 17
 429 425 427 431 398 519 428 0 0 +16 430 54 0 ?431 432 428 377 0 0 367 17 431
 425 429 433 404 509 430 0 0 +16 432 55 0 ?433 439 430 378 0 0 367 17 433 425
 431 427 402 499 432 0 0 +50 434 56 0 435 421 446 0 +9.6e-1 8e-2 -4e-2 -1e0 0e0
 0e0 0e0 0e0 1e0 14 435 57 437 ?422 447 438 393 434 +0 0 422 447 395 83 3 436
 1e0 0e0 0e0 81 1 437 58 108 435 0 0 0 449 436 15 438 59 0 445 435 0 16 439 60
 0 ?440 441 432 379 0 0 367 17 440 438 445 442 416 456 439 0 0 +16 441 61 0 ?
520 444 439 380 0 0 367 17 442 438 440 443 414 520 441 0 0 -17 443 438 442 445
 398 427 426 0 429 -16 444 62 0 ?445 451 441 388 0 0 367 17 445 438 443 440 400
 498 444 0 427 +50 446 63 0 447 434 463 0 +1e0 8e-2 0e0 0e0 1e0 0e0 1e0 0e0 0e0
 14 447 64 449 ?435 464 455 393 446 +0 0 435 464 395 83 3 448 1e0 0e0 0e0 81 1
 449 65 108 447 0 0 437 466 448 15 450 66 0 454 447 0 16 451 67 0 ?452 453 444
 381 0 0 367 17 452 450 454 454 408 468 451 0 0 +16 453 68 0 ?454 457 451 382 0
 0 367 17 454 450 452 452 406 480 453 0 0 +15 455 69 0 462 447 450 17 456 455
 462 458 414 440 439 0 442 -16 457 70 0 ?497 459 453 387 0 0 367 17 458 455 456
 460 416 497 457 0 440 -16 459 71 0 ?507 461 457 389 0 0 367 17 460 455 458 462
 418 507 459 0 0 -16 461 72 0 ?517 469 459 391 0 0 367 17 462 455 460 456 420
 517 461 0 0 -51 463 73 0 464 446 475 0 +1e0 8e-2 0e0 0e0 1e0 0e0 7.5e-2 1e0
 0e0 0e0 14 464 74 466 ?447 476 467 393 463 +0 0 447 476 395 83 3 465 1e0 0e0
 0e0 81 1 466 75 108 464 0 0 449 478 465 15 467 76 0 474 464 0 17 468 467 474
 470 406 452 451 0 454 -16 469 77 0 ?484 471 461 384 0 0 367 17 470 467 468 472
 408 484 469 0 452 -16 471 78 0 ?472 473 469 385 0 0 367 17 472 467 470 474 412
 490 471 0 0 +16 473 79 0 ?474 482 471 383 0 0 367 17 474 467 472 468 410 481
 473 0 0 +51 475 80 0 476 463 485 0 +1e0 8e-2 0e0 0e0 1e0 0e0 7.5e-2 1e0 0e0
 0e0 14 476 81 478 ?464 486 479 393 475 +0 0 464 486 395 83 3 477 1e0 0e0 0e0
 81 1 478 82 108 476 0 0 466 488 477 15 479 83 0 484 476 0 17 480 479 484 481
 408 454 453 0 470 -17 481 479 480 483 406 474 473 0 468 -16 482 84 0 ?483 500
 473 386 0 0 367 17 483 479 481 484 410 491 482 0 474 +17 484 479 483 480 412
 470 469 0 472 +50 485 85 0 486 475 492 0 +1e0 5e-2 0e0 0e0 1e0 0e0 1e0 0e0 0e0
 14 486 86 488 ?476 493 489 393 485 -0 0 476 493 395 83 3 487 1e0 0e0 0e0 81 1
 488 87 108 486 0 0 478 495 487 15 489 88 0 491 486 0 17 490 489 491 491 410
 472 471 0 483 -17 491 489 490 490 412 483 482 0 484 -50 492 89 0 493 485 502 0
 +9.6e-1 8e-2 4e-2 0e0 0e0 1e0 1e0 0e0 0e0 14 493 90 495 ?486 503 496 393 492 +
0 0 486 503 395 83 3 494 1e0 0e0 0e0 81 1 495 91 108 493 0 0 488 505 494 15 496
 92 0 501 493 0 17 497 496 501 498 418 458 457 0 460 +17 498 496 497 499 416
 445 444 0 458 -17 499 496 498 501 400 433 432 0 445 -16 500 93 0 ?501 510 482
 390 0 0 367 17 501 496 499 497 402 508 500 0 433 +50 502 94 0 503 492 512 0 +
1.04e0 8e-2 4e-2 1e0 0e0 0e0 0e0 0e0 -1e0 14 503 95 505 ?493 513 506 393 502 +0
 0 493 513 395 83 3 504 1e0 0e0 0e0 81 1 505 96 108 503 0 0 495 515 504 15 506
 97 0 511 503 0 17 507 506 511 508 420 460 459 0 462 +17 508 506 507 509 418
 501 500 0 497 -17 509 506 508 511 402 431 430 0 501 -16 510 98 0 ?511 0 500
 392 0 0 367 17 511 506 509 507 404 518 510 0 431 +50 512 99 0 513 502 0 0 +
1.04e0 8e-2 -4e-2 0e0 0e0 -1e0 -1e0 0e0 0e0 14 513 100 515 ?503 0 516 393 512 +
0 0 503 0 395 83 3 514 1e0 0e0 0e0 81 1 515 101 108 513 0 0 505 424 514 15 516
 102 0 520 513 0 17 517 516 520 518 414 462 461 0 456 +17 518 516 517 519 420
 511 510 0 507 -17 519 516 518 520 404 429 428 0 511 -17 520 516 519 517 398
 442 441 0 443 +11 521 6 0 1 522 0 1 366 0 0 0 12 522 75 524 526 0 0 0 0 1e3
 1e-8 521 0 0 1 0 1 1 542 627 541 560 545 624 561 84 5 523 LINK481 1 524 1 3
 522 529 0 0 0 523 74 20 525 3 0 524 529 565 0 0 0 0 0 0 0 0 0 0 0 0 0 0 0 0 0
 70 526 0 522 0 0 4 3 20 4 525 525 1 T83 1 527 7.84995898463689e3 84 7 528 KG/CU
 M81 2 529 2 69 522 0 524 0 0 527 528 31 530 3 0 567 0 531 0 +1e0 5e-2 0e0 0e0
 1e0 0e0 1e0 0e0 0e0 7e-2 31 531 4 0 569 530 532 0 +1e0 5e-2 0e0 0e0 1e0 0e0
 -1e0 0e0 0e0 7e-2 30 532 5 0 581 531 533 0 +1.07e0 5e-2 0e0 0e0 -1e0 0e0 30
 533 6 0 577 532 534 0 +9.3e-1 5e-2 0e0 0e0 -1e0 0e0 31 534 7 0 579 533 535 0 +
1e0 0e0 0e0 0e0 1e0 0e0 1e0 0e0 0e0 7e-2 31 535 8 0 590 534 536 0 +1e0 0e0 0e0
 0e0 1e0 0e0 -1e0 0e0 0e0 7e-2 31 536 9 0 601 535 537 0 +1e0 0e0 0e0 0e0 -1e0
 0e0 0e0 0e0 -1e0 4e-2 31 537 10 0 603 536 538 0 +1e0 0e0 0e0 0e0 -1e0 0e0 0e0
 0e0 1e0 4e-2 30 538 11 0 611 537 539 0 +1e0 0e0 -4e-2 0e0 -1e0 0e0 30 539 12 0
 615 538 540 0 +1e0 0e0 4e-2 0e0 -1e0 0e0 31 540 13 0 613 539 541 0 +1e0 -6e-2
 0e0 0e0 -1e0 0e0 0e0 0e0 -1e0 4e-2 31 541 14 0 624 540 0 0 +1e0 -6e-2 0e0 0e0
 -1e0 0e0 0e0 0e0 1e0 4e-2 13 542 15 0 522 0 628 0 0 543 0 19 543 75 0 522 0
 545 542 S13 544 16 0 0 0 0 0 0 545 628 19 545 17 0 522 543 0 544 V29 546 18 0
 547 0 548 1.07e0 5e-2 0e0 18 547 19 0 589 549 0 546 ?522 29 548 20 0 549 546
 550 9.3e-1 5e-2 0e0 18 549 21 0 588 551 547 548 ?522 29 550 22 0 551 548 552
 1.07e0 0e0 0e0 18 551 23 0 598 553 549 550 ?522 29 552 24 0 553 550 554 9.3e-1
 0e0 0e0 18 553 25 0 599 555 551 552 ?522 29 554 26 0 555 552 556 1e0 -6e-2
 -4e-2 18 555 27 0 633 557 553 554 ?522 29 556 28 0 557 554 558 1e0 -6e-2 4e-2
 18 557 29 0 632 559 555 556 ?522 29 558 30 0 559 556 560 1e0 0e0 -4e-2 18 559
 31 0 622 561 557 558 ?522 29 560 32 0 561 558 0 1e0 0e0 4e-2 18 561 33 0 623 0
 559 560 ?522 50 562 34 0 563 0 571 0 +1e0 5e-2 0e0 0e0 1e0 0e0 1e0 0e0 0e0 14
 563 35 565 ?0 572 566 542 562 +0 0 0 572 544 83 3 564 0e0 1e0 0e0 81 1 565 36
 108 563 0 0 630 0 564 15 566 37 0 570 563 0 16 567 38 0 ?568 569 0 530 0 0 522
 17 568 566 570 570 549 576 567 0 0 +16 569 39 0 ?570 577 567 531 0 0 522 17
 570 566 568 568 547 588 569 0 0 +51 571 40 0 572 562 583 0 +1e0 5e-2 0e0 0e0
 1e0 0e0 7e-2 1e0 0e0 0e0 14 572 41 574 ?563 584 575 542 571 +0 0 563 584 544
 83 3 573 0e0 1e0 0e0 81 1 574 42 108 572 0 0 0 586 573 15 575 43 0 582 572 0
 17 576 575 582 578 547 568 567 0 570 -16 577 44 0 ?592 579 569 533 0 0 522 17
 578 575 576 580 549 592 577 0 568 -16 579 45 0 ?580 581 577 534 0 0 522 17 580
 575 578 582 553 598 579 0 0 +16 581 46 0 ?582 590 579 532 0 0 522 17 582 575
 580 576 551 589 581 0 0 +51 583 47 0 584 571 593 0 +1e0 5e-2 0e0 0e0 1e0 0e0
 7e-2 1e0 0e0 0e0 14 584 48 586 ?572 594 587 542 583 +0 0 572 594 544 83 3 585
 0e0 1e0 0e0 81 1 586 49 108 584 0 0 574 596 585 15 587 50 0 592 584 0 17 588
 587 592 589 549 570 569 0 578 -17 589 587 588 591 547 582 581 0 576 -16 590 51
 0 ?591 601 581 535 0 0 522 17 591 587 589 592 551 599 590 0 582 +17 592 587
 591 588 553 578 577 0 580 +50 593 52 0 594 583 605 0 +1e0 0e0 0e0 0e0 1e0 0e0
 1e0 0e0 0e0 14 594 53 596 ?584 606 600 542 593 -0 0 584 606 544 83 3 595 0e0
 1e0 0e0 81 1 596 54 108 594 0 0 586 608 595 15 597 55 0 599 594 0 17 598 597
 599 599 551 580 579 0 591 -17 599 597 598 598 553 591 590 0 592 -15 600 56 0
 604 594 597 16 601 57 0 ?610 603 590 536 0 0 522 17 602 600 604 604 559 610
 601 0 0 -16 603 58 0 ?622 611 601 537 0 0 522 17 604 600 602 602 561 622 603 0
 0 -51 605 59 0 606 593 617 0 +1e0 0e0 0e0 0e0 -1e0 0e0 4e-2 0e0 0e0 -1e0 14
 606 60 608 ?594 618 609 542 605 +0 0 594 618 544 83 3 607 0e0 1e0 0e0 81 1 608
 61 108 606 0 0 596 620 607 15 609 62 0 616 606 0 17 610 609 616 612 561 602
 601 0 604 +16 611 63 0 ?626 613 603 538 0 0 522 17 612 609 610 614 559 626 611
 0 602 -16 613 64 0 ?632 615 611 540 0 0 522 17 614 609 612 616 555 632 613 0 0
 -16 615 65 0 ?616 624 613 539 0 0 522 17 616 609 614 610 557 623 615 0 0 +51
 617 66 0 618 605 627 0 +1e0 0e0 0e0 0e0 -1e0 0e0 4e-2 0e0 0e0 -1e0 14 618 67
 620 ?606 628 621 542 617 +0 0 606 628 544 83 3 619 0e0 1e0 0e0 81 1 620 68 108
 618 0 0 608 630 619 15 621 69 0 626 618 0 17 622 621 626 623 559 604 603 0 612
 +17 623 621 622 625 561 616 615 0 610 -16 624 70 0 ?633 0 615 541 0 0 522 17
 625 621 623 626 557 633 624 0 616 -17 626 621 625 622 555 612 611 0 614 +50
 627 71 0 628 617 0 0 +1e0 -6e-2 0e0 0e0 -1e0 0e0 0e0 0e0 -1e0 14 628 72 630 ?
618 0 631 542 627 +0 0 618 0 544 83 3 629 0e0 1e0 0e0 81 1 630 73 108 628 0 0
 620 565 629 15 631 74 0 633 628 0 17 632 631 633 633 557 614 613 0 625 +17 633
 631 632 632 555 625 624 0 626 +1 0 
